<svg width="16" height="16" viewBox="0 0 16 16" fill="none" xmlns="http://www.w3.org/2000/svg">
<path d="M8.74667 16H7.25333C6.74867 16 6.32267 15.622 6.26267 15.12L6.10333 13.8693C5.78533 13.766 5.47867 13.6387 5.18733 13.49L4.19133 14.264C3.78733 14.5767 3.21867 14.5407 2.868 14.18L1.818 13.13C1.46 12.7827 1.424 12.214 1.73667 11.8107L2.51067 10.814C2.36133 10.5227 2.234 10.216 2.13133 9.898L0.878 9.73867C0.378 9.67733 0 9.25133 0 8.74667V7.25333C0 6.74867 0.378 6.32267 0.88 6.26267L2.13067 6.10333C2.234 5.78533 2.36133 5.47867 2.51 5.18733L1.73667 4.19133C1.42333 3.78733 1.46 3.218 1.82133 2.86733L2.87133 1.81733C3.21867 1.45933 3.788 1.424 4.19067 1.736L5.18667 2.51067C5.478 2.362 5.78467 2.23467 6.10333 2.13133L6.26267 0.878C6.32267 0.378 6.74867 0 7.25333 0H8.74667C9.25133 0 9.67733 0.378 9.73733 0.88L9.89667 2.13067C10.2153 2.234 10.522 2.36133 10.8133 2.51L11.8093 1.736C12.214 1.42333 12.782 1.45933 13.1327 1.82067L14.1827 2.87067C14.5407 3.218 14.5767 3.78667 14.264 4.19L13.49 5.18667C13.6393 5.478 13.7667 5.78467 13.8693 6.10267L15.1227 6.262C15.622 6.32267 16 6.74867 16 7.25333V8.74667C16 9.25133 15.622 9.67733 15.12 9.73733L13.8693 9.89667C13.766 10.2147 13.6387 10.5213 13.49 10.8127L14.264 11.8087C14.5773 12.2127 14.5407 12.7813 14.1793 13.132L13.1293 14.182C12.782 14.54 12.2127 14.5767 11.81 14.2633L10.8133 13.4893C10.522 13.6387 10.2153 13.766 9.89733 13.8687L9.738 15.122C9.67733 15.622 9.25133 16 8.74667 16ZM5.15333 12.76C5.20867 12.76 5.26533 12.774 5.316 12.802C5.68333 13.0073 6.08133 13.1727 6.49867 13.2927C6.62667 13.3293 6.72067 13.4387 6.73733 13.5707L6.924 15.0373C6.944 15.2047 7.08867 15.3333 7.25333 15.3333H8.74667C8.91133 15.3333 9.056 15.2047 9.07533 15.0407L9.26267 13.5713C9.27933 13.4393 9.37333 13.33 9.50133 13.2933C9.91867 13.1733 10.3167 13.008 10.684 12.8027C10.8007 12.7373 10.946 12.7487 11.0507 12.8307L12.2173 13.7373C12.3513 13.8413 12.5393 13.8327 12.654 13.7147L13.7107 12.658C13.8313 12.5407 13.8407 12.3527 13.7367 12.218L12.83 11.0513C12.748 10.946 12.7367 10.8013 12.802 10.6847C13.0073 10.3173 13.1727 9.91933 13.2927 9.502C13.3293 9.374 13.4387 9.28 13.5707 9.26333L15.0373 9.07667C15.2047 9.056 15.3333 8.91133 15.3333 8.74667V7.25333C15.3333 7.08867 15.2047 6.944 15.0407 6.92467L13.5713 6.73733C13.4393 6.72067 13.33 6.62667 13.2933 6.49867C13.1733 6.08133 13.008 5.68333 12.8027 5.316C12.7373 5.19933 12.748 5.05467 12.8307 4.94933L13.7373 3.78267C13.842 3.648 13.8327 3.46 13.7153 3.34667L12.6587 2.29C12.542 2.16867 12.3533 2.15933 12.2187 2.264L11.052 3.17067C10.946 3.25267 10.8013 3.264 10.6847 3.19867C10.3187 2.99333 9.92067 2.82867 9.502 2.708C9.374 2.67133 9.28 2.562 9.26333 2.43L9.07667 0.963333C9.056 0.795333 8.91133 0.666667 8.74667 0.666667H7.25333C7.08867 0.666667 6.944 0.795333 6.92467 0.959333L6.73733 2.42867C6.72067 2.56067 6.62667 2.67 6.49867 2.70733C6.08 2.82733 5.682 2.99267 5.316 3.19733C5.19933 3.26333 5.05467 3.25133 4.94867 3.17L3.782 2.26333C3.64733 2.15867 3.46 2.168 3.346 2.28533L2.28933 3.34267C2.16867 3.46 2.15933 3.648 2.26333 3.78267L3.17 4.94933C3.252 5.05467 3.26333 5.19933 3.198 5.316C2.992 5.68333 2.82733 6.08133 2.70733 6.49867C2.67067 6.62667 2.56133 6.72067 2.42933 6.73733L0.962667 6.924C0.795333 6.944 0.666667 7.08867 0.666667 7.25333V8.74667C0.666667 8.91133 0.795333 9.056 0.959333 9.07533L2.42867 9.26267C2.56067 9.27933 2.67 9.37333 2.70667 9.50133C2.82667 9.91867 2.992 10.3167 3.19733 10.684C3.26267 10.8007 3.252 10.9453 3.16933 11.0507L2.26267 12.2173C2.158 12.352 2.16733 12.54 2.28467 12.6533L3.34133 13.71C3.458 13.8307 3.64533 13.84 3.78133 13.736L4.948 12.8293C5.00867 12.784 5.08067 12.76 5.15333 12.76Z" fill="white"/>
<path d="M7.99984 11.3327C6.16184 11.3327 4.6665 9.83735 4.6665 7.99935C4.6665 6.16135 6.16184 4.66602 7.99984 4.66602C9.83784 4.66602 11.3332 6.16135 11.3332 7.99935C11.3332 9.83735 9.83784 11.3327 7.99984 11.3327ZM7.99984 5.33268C6.52917 5.33268 5.33317 6.52868 5.33317 7.99935C5.33317 9.47002 6.52917 10.666 7.99984 10.666C9.4705 10.666 10.6665 9.47002 10.6665 7.99935C10.6665 6.52868 9.4705 5.33268 7.99984 5.33268Z" fill="white"/>
</svg>
