<svg width="12" height="16" viewBox="0 0 12 16" fill="none" xmlns="http://www.w3.org/2000/svg">
<path d="M11.8648 3.82745L8.17255 0.135231C8.08637 0.0490154 7.96874 0 7.84615 0H1.38462C0.621138 0 0 0.621139 0 1.38462V14.3692C0 15.1327 0.621138 15.7538 1.38462 15.7538H10.6154C11.3789 15.7538 12 15.1327 12 14.3692V4.15385C12 4.028 11.9472 3.90982 11.8648 3.82745ZM8.30769 1.57578L10.4242 3.69231H8.76923C8.51474 3.69231 8.30769 3.48526 8.30769 3.23077V1.57578ZM10.6154 14.8308H1.38462C1.13012 14.8308 0.923077 14.6237 0.923077 14.3692V1.38462C0.923077 1.13012 1.13012 0.923077 1.38462 0.923077H7.38462V3.23077C7.38462 3.99425 8.00575 4.61539 8.76923 4.61539H11.0769V14.3692C11.0769 14.6237 10.8699 14.8308 10.6154 14.8308Z" fill="white"/>
<path d="M8.76929 6.52344H3.23083C2.97593 6.52344 2.76929 6.73008 2.76929 6.98498C2.76929 7.23987 2.97593 7.44651 3.23083 7.44651H8.76929C9.02418 7.44651 9.23082 7.23987 9.23082 6.98498C9.23082 6.73008 9.02418 6.52344 8.76929 6.52344Z" fill="white"/>
<path d="M8.76929 8.36914H3.23083C2.97593 8.36914 2.76929 8.57579 2.76929 8.83068C2.76929 9.08557 2.97593 9.29222 3.23083 9.29222H8.76929C9.02418 9.29222 9.23082 9.08557 9.23082 8.83068C9.23082 8.57579 9.02418 8.36914 8.76929 8.36914Z" fill="white"/>
<path d="M8.76929 10.2148H3.23083C2.97593 10.2148 2.76929 10.4215 2.76929 10.6764C2.76929 10.9313 2.97593 11.1379 3.23083 11.1379H8.76929C9.02418 11.1379 9.23082 10.9313 9.23082 10.6764C9.23082 10.4215 9.02418 10.2148 8.76929 10.2148Z" fill="white"/>
<path d="M6.92313 12.0625H3.23083C2.97593 12.0625 2.76929 12.2691 2.76929 12.524C2.76929 12.7789 2.97593 12.9856 3.23083 12.9856H6.92313C7.17803 12.9856 7.38467 12.7789 7.38467 12.524C7.38467 12.2691 7.17803 12.0625 6.92313 12.0625Z" fill="white"/>
</svg>
