<svg width="19" height="10" viewBox="0 0 19 10" fill="none" xmlns="http://www.w3.org/2000/svg">
<path d="M0.217693 5.96061C0.217916 5.96083 0.218102 5.96109 0.218361 5.96131L4.09644 9.78583C4.38697 10.0723 4.85688 10.0713 5.14608 9.78333C5.43523 9.49542 5.43412 9.02975 5.14359 8.74321L2.53985 6.17548H18.2578C18.6677 6.17548 19 5.84621 19 5.44C19 5.03379 18.6677 4.70452 18.2578 4.70452H2.53988L5.14355 2.13679C5.43408 1.85025 5.43519 1.38458 5.14604 1.09667C4.85684 0.808693 4.38689 0.807701 4.0964 1.09417L0.218325 4.91869C0.218102 4.91891 0.217915 4.91917 0.217655 4.91939C-0.0730228 5.20689 -0.072094 5.67407 0.217693 5.96061Z" fill="white"/>
</svg>
