<svg width="12" height="20" viewBox="0 0 12 20" fill="none" xmlns="http://www.w3.org/2000/svg">
<path d="M0.000533484 18.2075C-0.00624873 18.4436 0.0517461 18.677 0.168225 18.8824C0.284705 19.0878 0.45522 19.2575 0.66127 19.3728C0.86732 19.4882 1.10103 19.545 1.33706 19.537C1.57308 19.5289 1.80239 19.4564 2.00012 19.3273L5.75268 16.9811C5.83424 16.9288 5.92908 16.9011 6.02596 16.9011C6.12283 16.9011 6.21767 16.9288 6.29923 16.9811L9.99847 19.3273C10.1997 19.4494 10.4297 19.5161 10.665 19.5206C10.8401 19.527 11.0146 19.4975 11.1779 19.4341C11.3412 19.3706 11.4899 19.2744 11.6147 19.1515C11.7395 19.0285 11.8379 18.8814 11.9038 18.7191C11.9697 18.5567 12.0018 18.3827 11.9981 18.2075V9.68259C11.9978 9.53623 11.9646 9.3918 11.9008 9.26006C11.8371 9.12832 11.7444 9.01266 11.6297 8.92169C11.515 8.83073 11.3813 8.7668 11.2385 8.73467C11.0957 8.70254 10.9475 8.70304 10.805 8.73612L0.753711 11.0423C0.538676 11.0922 0.346994 11.2137 0.210131 11.3869C0.0732676 11.5601 -0.000642614 11.7747 0.000533484 11.9954V18.2075ZM1.33359 12.2754L10.665 10.1358V18.1342L6.97909 15.828C6.6851 15.6448 6.34567 15.5478 5.99929 15.5478C5.65292 15.5478 5.31348 15.6448 5.0195 15.828L1.33359 18.1275V12.2754Z" fill="white"/>
<path d="M1.84702 1.33306H3.00678C3.18355 1.33306 3.35309 1.26283 3.47809 1.13784C3.60308 1.01284 3.67331 0.843304 3.67331 0.666529C3.67331 0.489754 3.60308 0.32022 3.47809 0.195222C3.35309 0.0702234 3.18355 0 3.00678 0H1.84702C1.35735 0 0.887743 0.194519 0.541497 0.540764C0.195251 0.88701 0.000732422 1.35662 0.000732422 1.84629V8.66488C0.000903478 8.81092 0.0339441 8.95505 0.0974045 9.08659C0.160865 9.21813 0.253118 9.33369 0.367324 9.42472C0.53897 9.56343 0.753176 9.63876 0.973865 9.63801C1.04704 9.64453 1.12065 9.64453 1.19382 9.63801L11.2451 7.33182C11.4694 7.28021 11.6681 7.15078 11.806 6.96652C11.9439 6.78226 12.012 6.55509 11.9983 6.32536V1.84629C11.9983 1.35662 11.8037 0.88701 11.4575 0.540764C11.1112 0.194519 10.6416 0 10.152 0H8.2457C8.06892 0 7.89939 0.0702234 7.77439 0.195222C7.64939 0.32022 7.57917 0.489754 7.57917 0.666529C7.57917 0.843304 7.64939 1.01284 7.77439 1.13784C7.89939 1.26283 8.06892 1.33306 8.2457 1.33306H10.152C10.2875 1.33479 10.4171 1.38941 10.513 1.48529C10.6088 1.58117 10.6635 1.71071 10.6652 1.84629V6.03875L1.33379 8.17831V1.84629C1.33552 1.71071 1.39014 1.58117 1.48602 1.48529C1.5819 1.38941 1.71144 1.33479 1.84702 1.33306Z" fill="white"/>
</svg>
