<svg width="18" height="16" viewBox="0 0 18 16" fill="none" xmlns="http://www.w3.org/2000/svg">
<path d="M16.6992 2.01576C16.6982 2.01576 16.6971 2.01562 16.6961 2.01562H12.1273V1.51172C12.1273 0.678174 11.4492 0 10.6156 0H6.58438C5.75083 0 5.07266 0.678174 5.07266 1.51172V2.01562H0.503906C0.223346 2.01562 0 2.24553 0 2.51953V13.6055C0 14.439 0.678174 15.1172 1.51172 15.1172H15.6883C16.5218 15.1172 17.2 14.439 17.2 13.6055V2.53016C17.2 2.5295 17.2 2.52885 17.2 2.52819C17.1807 2.19724 16.9772 2.01759 16.6992 2.01576ZM6.08047 1.51172C6.08047 1.23391 6.30657 1.00781 6.58438 1.00781H10.6156C10.8934 1.00781 11.1195 1.23391 11.1195 1.51172V2.01562H6.08047V1.51172ZM15.9969 3.02344L14.4321 7.7179C14.3634 7.92406 14.1713 8.0625 13.9541 8.0625H11.1195V7.55859C11.1195 7.28026 10.894 7.05469 10.6156 7.05469H6.58438C6.30605 7.05469 6.08047 7.28026 6.08047 7.55859V8.0625H3.24587C3.02869 8.0625 2.83657 7.92406 2.76794 7.7179L1.20308 3.02344H15.9969ZM10.1117 8.0625V9.07031H7.08828V8.0625H10.1117ZM16.1922 13.6055C16.1922 13.8833 15.9661 14.1094 15.6883 14.1094H1.51172C1.23391 14.1094 1.00781 13.8833 1.00781 13.6055V5.62472L1.81183 8.03665C2.01786 8.65498 2.5942 9.07031 3.24587 9.07031H6.08047V9.57422C6.08047 9.85255 6.30605 10.0781 6.58438 10.0781H10.6156C10.894 10.0781 11.1195 9.85255 11.1195 9.57422V9.07031H13.9541C14.6058 9.07031 15.1821 8.65498 15.3882 8.03665L16.1922 5.62472V13.6055Z" fill="white"/>
</svg>
