<svg width="18" height="18" viewBox="0 0 18 18" fill="none" xmlns="http://www.w3.org/2000/svg">
<path d="M16.875 4.5H1.125C0.50475 4.5 0 3.99525 0 3.375V1.125C0 0.50475 0.50475 0 1.125 0H16.875C17.4953 0 18 0.50475 18 1.125V3.375C18 3.99525 17.4953 4.5 16.875 4.5ZM1.125 0.75C0.918 0.75 0.75 0.918 0.75 1.125V3.375C0.75 3.582 0.918 3.75 1.125 3.75H16.875C17.082 3.75 17.25 3.582 17.25 3.375V1.125C17.25 0.918 17.082 0.75 16.875 0.75H1.125Z" fill="white"/>
<path d="M7.125 18H1.125C0.50475 18 0 17.4952 0 16.875V7.125C0 6.50475 0.50475 6 1.125 6H7.125C7.74525 6 8.25 6.50475 8.25 7.125V16.875C8.25 17.4952 7.74525 18 7.125 18ZM1.125 6.75C0.918 6.75 0.75 6.918 0.75 7.125V16.875C0.75 17.082 0.918 17.25 1.125 17.25H7.125C7.332 17.25 7.5 17.082 7.5 16.875V7.125C7.5 6.918 7.332 6.75 7.125 6.75H1.125Z" fill="white"/>
<path d="M16.875 11.25H10.875C10.2548 11.25 9.75 10.7453 9.75 10.125V7.125C9.75 6.50475 10.2548 6 10.875 6H16.875C17.4953 6 18 6.50475 18 7.125V10.125C18 10.7453 17.4953 11.25 16.875 11.25ZM10.875 6.75C10.668 6.75 10.5 6.918 10.5 7.125V10.125C10.5 10.332 10.668 10.5 10.875 10.5H16.875C17.082 10.5 17.25 10.332 17.25 10.125V7.125C17.25 6.918 17.082 6.75 16.875 6.75H10.875Z" fill="white"/>
<path d="M16.875 18H10.875C10.2548 18 9.75 17.4953 9.75 16.875V13.875C9.75 13.2548 10.2548 12.75 10.875 12.75H16.875C17.4953 12.75 18 13.2548 18 13.875V16.875C18 17.4953 17.4953 18 16.875 18ZM10.875 13.5C10.668 13.5 10.5 13.668 10.5 13.875V16.875C10.5 17.082 10.668 17.25 10.875 17.25H16.875C17.082 17.25 17.25 17.082 17.25 16.875V13.875C17.25 13.668 17.082 13.5 16.875 13.5H10.875Z" fill="white"/>
</svg>
