<svg width="20" height="17" viewBox="0 0 20 17" fill="none" xmlns="http://www.w3.org/2000/svg">
<path d="M17.1103 0.884766H3.57459C2.13904 0.884766 0.971436 2.05238 0.971436 3.48794V13.9006C0.971436 15.3362 2.13904 16.5038 3.57459 16.5038H17.1111C18.5467 16.5038 19.7143 15.3362 19.7143 13.9006V3.48794C19.7143 2.05238 18.5458 0.884766 17.1103 0.884766ZM3.57459 1.92639H17.1111C17.8759 1.92639 18.5112 2.48003 18.6443 3.20757L10.3424 8.09008L2.04055 3.20668C2.17364 2.48003 2.8089 1.92639 3.57459 1.92639ZM18.6727 13.9006C18.6727 14.7622 17.9718 15.4622 17.1111 15.4622H3.57459C2.71308 15.4622 2.01305 14.7613 2.01305 13.9006V4.39825L10.3424 9.2985L18.6727 4.39825V13.9006Z" fill="#5B5B5B"/>
</svg>
