<svg width="19" height="19" viewBox="0 0 19 19" fill="none" xmlns="http://www.w3.org/2000/svg">
<path d="M12.182 11.5901C11.7499 11.5901 11.3983 11.2858 11.3983 10.9118C11.3983 10.5377 11.7499 10.2334 12.182 10.2334C12.6142 10.2334 12.9658 10.5377 12.9658 10.9118C12.9658 11.1085 13.1253 11.268 13.322 11.268C13.5188 11.268 13.6783 11.1085 13.6783 10.9118C13.6783 10.259 13.1919 9.71005 12.5383 9.56107V9.37578C12.5383 9.17906 12.3788 9.01953 12.182 9.01953C11.9853 9.01953 11.8258 9.17906 11.8258 9.37578V9.56107C11.1722 9.71005 10.6858 10.259 10.6858 10.9118C10.6858 11.6787 11.357 12.3026 12.182 12.3026C12.6142 12.3026 12.9658 12.6069 12.9658 12.981C12.9658 13.3551 12.6142 13.6594 12.182 13.6594C11.7499 13.6594 11.3983 13.3551 11.3983 12.981C11.3983 12.7843 11.2388 12.6247 11.042 12.6247C10.8453 12.6247 10.6858 12.7843 10.6858 12.981C10.6858 13.6338 11.1722 14.1827 11.8258 14.3317V14.4856C11.8258 14.6823 11.9853 14.8419 12.182 14.8419C12.3788 14.8419 12.5383 14.6823 12.5383 14.4856V14.3317C13.1919 14.1827 13.6783 13.6338 13.6783 12.981C13.6783 12.2141 13.0071 11.5901 12.182 11.5901Z" fill="white"/>
<path d="M16.084 9.47106C15.6186 8.74591 14.963 8.16565 14.188 7.79309C14.0106 7.7078 13.7977 7.78247 13.7125 7.95981C13.6273 8.13715 13.7019 8.34998 13.8792 8.43523C15.2298 9.08446 16.1024 10.4717 16.1024 11.9693C16.1024 12.6101 15.9445 13.2456 15.6457 13.8072C15.5533 13.9809 15.6192 14.1966 15.7929 14.289C15.8462 14.3174 15.9034 14.3308 15.9599 14.3308C16.0873 14.3308 16.2106 14.2622 16.2747 14.1418C16.6281 13.4777 16.8149 12.7264 16.8149 11.9693C16.8149 11.0801 16.5622 10.2162 16.084 9.47106Z" fill="white"/>
<path d="M12.742 7.33793L12.7181 7.33789C12.5213 7.33789 12.3618 7.49738 12.3618 7.69414C12.3618 7.8909 12.5213 8.05039 12.7181 8.05039L12.7387 8.05042C12.7393 8.05042 12.7398 8.05042 12.7404 8.05042C12.9364 8.05042 13.0957 7.89204 13.0966 7.69585C13.0975 7.49909 12.9388 7.33885 12.742 7.33793Z" fill="white"/>
<path d="M10.4882 15.505C9.13762 14.8557 8.26499 13.4685 8.26499 11.9709C8.26499 11.3301 8.42295 10.6946 8.72174 10.133C8.81415 9.95935 8.74828 9.7436 8.57457 9.65119C8.40093 9.55878 8.18512 9.62465 8.09274 9.79836C7.73931 10.4626 7.55249 11.2138 7.55249 11.9709C7.55249 12.8601 7.80525 13.724 8.28344 14.4691C8.74881 15.1943 9.40445 15.7745 10.1795 16.1471C10.2292 16.1711 10.2818 16.1824 10.3336 16.1824C10.4663 16.1824 10.5936 16.108 10.6549 15.9804C10.7401 15.8031 10.6655 15.5902 10.4882 15.505Z" fill="white"/>
<path d="M11.6495 15.8887L11.6289 15.8887C11.4312 15.8883 11.2719 16.0465 11.271 16.2432C11.2701 16.44 11.4289 16.6002 11.6256 16.6012L11.6495 16.6012C11.8462 16.6012 12.0057 16.4417 12.0057 16.245C12.0057 16.0483 11.8462 15.8887 11.6495 15.8887Z" fill="white"/>
<path d="M13.8014 6.13347C13.7581 6.03016 13.7049 5.9328 13.6431 5.84249H14.5706C15.4742 5.84249 16.2093 5.10733 16.2093 4.20374C16.2093 3.30015 15.4742 2.565 14.5706 2.565H11.7178C11.8991 2.3013 12.0056 1.98228 12.0056 1.63875C12.0056 0.735156 11.2704 0 10.3669 0H1.63875C0.735156 0 0 0.735156 0 1.63875C0 2.54234 0.735156 3.27749 1.63875 3.27749H4.49159C4.31023 3.54119 4.20374 3.86021 4.20374 4.20374C4.20374 4.54727 4.31019 4.86629 4.49159 5.12999H3.56249C2.6589 5.12999 1.92375 5.86515 1.92375 6.76874C1.92375 7.28769 2.16649 7.75077 2.54415 8.05124C2.16649 8.3517 1.92375 8.81478 1.92375 9.33373C1.92375 9.85268 2.16649 10.3158 2.54415 10.6162C2.16649 10.9167 1.92375 11.3798 1.92375 11.8987C1.92375 12.4177 2.16649 12.8808 2.54415 13.1812C2.16649 13.4817 1.92375 13.9448 1.92375 14.4637C1.92375 15.3673 2.6589 16.1025 3.56249 16.1025H7.76089C8.8669 17.2855 10.4403 18.0263 12.1838 18.0263C15.5232 18.0263 18.24 15.3094 18.24 11.97C18.24 9.19066 16.3579 6.84294 13.8014 6.13347ZM14.5706 3.27749C15.0814 3.27749 15.4968 3.69302 15.4968 4.20374C15.4968 4.71446 15.0814 5.12999 14.5706 5.12999H12.2906H5.84249C5.33173 5.12999 4.91624 4.71446 4.91624 4.20374C4.91624 3.69302 5.33173 3.27749 5.84249 3.27749H14.5706ZM1.63875 2.565C1.12799 2.565 0.712499 2.14947 0.712499 1.63875C0.712499 1.12803 1.12799 0.712499 1.63875 0.712499H10.3669C10.8776 0.712499 11.2931 1.12803 11.2931 1.63875C11.2931 2.14947 10.8776 2.565 10.3669 2.565H1.63875ZM3.56249 5.84249H12.2906C12.4341 5.84249 12.5715 5.87583 12.6948 5.93554C12.5263 5.9214 12.3559 5.91377 12.1838 5.91377C10.5114 5.91377 8.99515 6.59524 7.89812 7.69499H3.56249C3.05177 7.69499 2.63625 7.27946 2.63625 6.76874C2.63625 6.25802 3.05177 5.84249 3.56249 5.84249ZM3.56249 8.40748H7.2894C6.88498 8.96156 6.5723 9.58649 6.37373 10.26H3.56249C3.05174 10.26 2.63625 9.84449 2.63625 9.33373C2.63625 8.82301 3.05174 8.40748 3.56249 8.40748ZM3.56249 10.9725H6.21014C6.1561 11.2971 6.12752 11.6303 6.12752 11.97C6.12752 12.2602 6.14851 12.5456 6.18816 12.825H3.56249C3.05174 12.825 2.63625 12.4095 2.63625 11.8987C2.63625 11.388 3.05174 10.9725 3.56249 10.9725ZM3.56249 15.39C3.05174 15.39 2.63625 14.9745 2.63625 14.4637C2.63625 13.953 3.05174 13.5375 3.56249 13.5375H6.33361C6.51338 14.2077 6.8054 14.8323 7.18836 15.39H3.56249ZM12.1838 17.3138C9.23722 17.3138 6.84002 14.9166 6.84002 11.97C6.84002 9.02347 9.23722 6.62627 12.1838 6.62627C15.1303 6.62627 17.5275 9.02347 17.5275 11.97C17.5275 14.9166 15.1303 17.3138 12.1838 17.3138Z" fill="white"/>
</svg>
