<svg width="15" height="19" viewBox="0 0 15 19" fill="none" xmlns="http://www.w3.org/2000/svg">
<path d="M14.991 15.6007L14.1462 4.955C14.0935 4.26915 13.5135 3.73186 12.8257 3.73186H11.1569V3.65686C11.1569 1.64045 9.51645 0 7.50005 0C5.48364 0 3.84319 1.64045 3.84319 3.65686V3.73186H2.17448C1.48659 3.73186 0.906516 4.26911 0.854048 4.95356L0.00893892 15.6022C-0.0564617 16.4548 0.239319 17.3036 0.820387 17.931C1.40145 18.5583 2.22517 18.9182 3.08029 18.9182H11.9198C12.7748 18.9182 13.5986 18.5583 14.1797 17.931C14.7608 17.3036 15.0565 16.4548 14.991 15.6007ZM4.9513 3.65686C4.9513 2.25148 6.09471 1.10812 7.50005 1.10812C8.90538 1.10812 10.0488 2.25152 10.0488 3.65686V3.73186H4.9513V3.65686ZM13.3667 17.178C12.9892 17.5856 12.4753 17.81 11.9198 17.81H3.08033C2.52476 17.81 2.01094 17.5856 1.63339 17.178C1.25587 16.7704 1.07135 16.2409 1.11377 15.6884L1.9588 5.03973C1.96737 4.9277 2.06211 4.83998 2.17448 4.83998H3.84319V6.20471C3.84319 6.51069 4.09127 6.75877 4.39725 6.75877C4.70323 6.75877 4.9513 6.51069 4.9513 6.20471V4.83998H10.0488V6.20471C10.0488 6.51069 10.2969 6.75877 10.6028 6.75877C10.9088 6.75877 11.1569 6.51069 11.1569 6.20471V4.83998H12.8257C12.938 4.83998 13.0327 4.92773 13.0414 5.04121L13.8863 15.6869C13.9288 16.2409 13.7442 16.7704 13.3667 17.178Z" fill="white"/>
<path d="M9.99616 9.39666C9.77985 9.18028 9.42902 9.18028 9.21268 9.39666L6.73869 11.8706L5.78739 10.9193C5.57105 10.703 5.22021 10.703 5.00383 10.9193C4.78746 11.1357 4.78746 11.4865 5.00383 11.7029L6.34691 13.046C6.4551 13.1542 6.59691 13.2083 6.73865 13.2083C6.88039 13.2083 7.02224 13.1542 7.13039 13.046L9.99612 10.1802C10.2125 9.96383 10.2125 9.61303 9.99616 9.39666Z" fill="white"/>
</svg>
