<svg width="17" height="22" viewBox="0 0 17 22" fill="none" xmlns="http://www.w3.org/2000/svg">
<path d="M16.7086 7.23188L12.4547 5.58419C12.6772 4.952 12.7449 4.27568 12.6521 3.61194C12.5593 2.9482 12.3087 2.31638 11.9214 1.76945C11.534 1.22252 11.0212 0.776417 10.4259 0.468544C9.83063 0.160671 9.1702 0 8.5 0C7.8298 0 7.16937 0.160671 6.57408 0.468544C5.97878 0.776417 5.46597 1.22252 5.07863 1.76945C4.6913 2.31638 4.44073 2.9482 4.34793 3.61194C4.25512 4.27568 4.3228 4.952 4.54528 5.58419L0.291353 7.23188C0.205485 7.26538 0.131731 7.32402 0.0797454 7.40013C0.0277598 7.47624 -3.47993e-05 7.56628 3.26984e-08 7.65845V17.5258C-2.60362e-05 17.6181 0.0278593 17.7082 0.0799953 17.7844C0.132131 17.8606 0.206082 17.9192 0.292139 17.9526L8.33445 21.0701C8.38726 21.0905 8.44339 21.101 8.5 21.101C8.55604 21.0999 8.61137 21.0883 8.6632 21.067L8.66556 21.0701L16.7086 17.9526C16.7946 17.9191 16.8683 17.8604 16.9203 17.7842C16.9723 17.7081 17.0001 17.618 17 17.5258V7.65845C17 7.56628 16.9722 7.47624 16.9203 7.40013C16.8683 7.32402 16.7945 7.26538 16.7086 7.23188ZM15.2767 7.65845L13.792 8.23383L11.3314 7.28707C11.6117 7.02914 11.8558 6.73441 12.0569 6.41091L15.2767 7.65845ZM10.4312 7.92156L12.5235 8.72631L11.3421 9.184L9.17503 8.3374C9.61324 8.26663 10.0373 8.12624 10.4312 7.92156ZM11.8553 9.96653L13.3923 9.37074V11.2776L13.1352 11.11C13.0453 11.0514 12.9377 11.0263 12.8311 11.039C12.7246 11.0518 12.6259 11.1015 12.5523 11.1795L11.8553 11.9192V9.96653ZM8.5 0.926971C9.14814 0.926971 9.78173 1.11917 10.3206 1.47926C10.8596 1.83935 11.2796 2.35116 11.5276 2.94997C11.7757 3.54877 11.8406 4.20768 11.7141 4.84338C11.5877 5.47907 11.2756 6.06299 10.8172 6.52129C10.3589 6.9796 9.77502 7.29171 9.13933 7.41816C8.50364 7.54461 7.84472 7.47971 7.24592 7.23167C6.64711 6.98364 6.1353 6.56361 5.77521 6.0247C5.41512 5.48578 5.22292 4.85219 5.22292 4.20405C5.22389 3.33521 5.56947 2.50224 6.18383 1.88788C6.79819 1.27351 7.63116 0.927941 8.5 0.926971ZM5.20462 6.78543L4.59209 6.54613L4.94282 6.41013C5.02318 6.54016 5.11057 6.66571 5.20462 6.78622V6.78543ZM3.32965 7.03546L10.0784 9.6736L8.5 10.2853L1.72328 7.65845L3.32965 7.03546ZM0.915385 17.2122V8.32694L8.04231 11.0898V19.9751L0.915385 17.2122ZM8.95769 19.9751V11.0898L10.9399 10.3209V13.0726C10.9399 13.1642 10.9675 13.2538 11.019 13.3296C11.0706 13.4054 11.1437 13.464 11.2289 13.4978C11.2825 13.5193 11.3398 13.5303 11.3976 13.5303C11.46 13.5303 11.5218 13.5175 11.5791 13.4928C11.6364 13.468 11.688 13.4318 11.7308 13.3864L12.9561 12.0858L13.6003 12.5042C13.6693 12.5489 13.7491 12.5741 13.8312 12.5772C13.9134 12.5804 13.9949 12.5613 14.0671 12.5221C14.1394 12.4829 14.1997 12.4249 14.2418 12.3543C14.2839 12.2837 14.3062 12.203 14.3064 12.1208V9.01583L16.0846 8.32694V17.2122L8.95769 19.9751Z" fill="white"/>
<path d="M7.68457 5.55038C7.76899 5.62182 7.87642 5.66028 7.987 5.65865C8.09758 5.65701 8.20383 5.6154 8.28611 5.54149L10.5058 3.54647C10.5528 3.50697 10.5914 3.4584 10.6193 3.40367C10.6472 3.34893 10.6637 3.28914 10.668 3.22786C10.6723 3.16659 10.6642 3.10507 10.6442 3.04699C10.6242 2.98891 10.5927 2.93545 10.5516 2.88979C10.5106 2.84414 10.4607 2.80722 10.405 2.78124C10.3494 2.75526 10.289 2.74074 10.2277 2.73857C10.1663 2.73639 10.1051 2.74659 10.0477 2.76857C9.99036 2.79054 9.93801 2.82384 9.89378 2.86647L7.97095 4.59498L7.09532 3.85483C7.00262 3.77644 6.88257 3.7381 6.76159 3.74823C6.64062 3.75836 6.52862 3.81613 6.45024 3.90883C6.37185 4.00154 6.33351 4.12158 6.34364 4.24256C6.35377 4.36354 6.41154 4.47554 6.50424 4.55392L7.68457 5.55038Z" fill="white"/>
</svg>
