<svg width="31" height="24" viewBox="0 0 31 24" fill="none" xmlns="http://www.w3.org/2000/svg">
<path d="M19.9287 5.79983H24.6736V5.27262L22.7604 2.40283C22.7002 2.31256 22.6187 2.23854 22.523 2.18734C22.4274 2.13615 22.3205 2.10937 22.212 2.10938H19.9287V5.79983Z" fill="#FA5D3F"/>
<path d="M19.9286 14.2355V11.0723H29.682C30.0315 11.0723 30.3668 11.2111 30.614 11.4583C30.8611 11.7055 31 12.0407 31 12.3903V18.8486C31 19.0234 30.9306 19.191 30.807 19.3146C30.6834 19.4382 30.5158 19.5076 30.341 19.5076H1.08095C0.906174 19.5076 0.738552 19.4382 0.614964 19.3146C0.491375 19.191 0.421944 19.0234 0.421944 18.8486V14.2355H19.9286Z" fill="#FA5D3F"/>
<path d="M19.9286 11.598H29.9456V11.0708L26.32 6.08569C26.1366 5.8335 25.8961 5.62826 25.6183 5.48676C25.3404 5.34525 25.033 5.27149 24.7211 5.27148H19.9286V11.598Z" fill="#F7D9D2"/>
<path d="M19.7968 0H1.08092C0.906141 0 0.73852 0.0694312 0.614931 0.19302C0.491343 0.316608 0.421911 0.48423 0.421913 0.65901V14.7618H20.4558V0.65901C20.4558 0.48423 20.3864 0.316608 20.2628 0.19302C20.1392 0.0694312 19.9716 0 19.7968 0Z" fill="#FAC850"/>
<path d="M25.7279 23.7249C23.9809 23.7249 22.5646 22.3087 22.5646 20.5617C22.5646 18.8147 23.9809 17.3984 25.7279 17.3984C27.4749 17.3984 28.8911 18.8147 28.8911 20.5617C28.8911 22.3087 27.4749 23.7249 25.7279 23.7249Z" fill="#4D4D4D"/>
<path d="M5.69417 23.7249C3.94716 23.7249 2.53093 22.3087 2.53093 20.5617C2.53093 18.8147 3.94716 17.3984 5.69417 17.3984C7.44119 17.3984 8.85742 18.8147 8.85742 20.5617C8.85742 22.3087 7.44119 23.7249 5.69417 23.7249Z" fill="#4D4D4D"/>
<path d="M24.1462 12.6523H22.0374V13.7068H24.1462V12.6523Z" fill="#FFFEFD"/>
<path d="M29.682 15.2899H31V12.3903C31 12.0407 30.8611 11.7055 30.614 11.4583C30.3668 11.2111 30.0315 11.0723 29.682 11.0723H28.364V13.9719C28.364 14.3215 28.5028 14.6567 28.75 14.9039C28.9972 15.1511 29.3324 15.2899 29.682 15.2899Z" fill="#FAC850"/>
<path d="M18.8743 1.58203H17.8199V2.63645H18.8743V1.58203Z" fill="#FFFAF6"/>
<path d="M18.8743 12.125H17.8199V13.1794H18.8743V12.125Z" fill="#FFFAF6"/>
<path d="M3.05786 1.58203H2.00345V2.63645H3.05786V1.58203Z" fill="#FFFAF6"/>
<path d="M3.05786 12.125H2.00345V13.1794H3.05786V12.125Z" fill="#FFFAF6"/>
<path d="M25.7278 21.6147C25.1455 21.6147 24.6734 21.1426 24.6734 20.5603C24.6734 19.9779 25.1455 19.5059 25.7278 19.5059C26.3101 19.5059 26.7822 19.9779 26.7822 20.5603C26.7822 21.1426 26.3101 21.6147 25.7278 21.6147Z" fill="#FEFEFE"/>
<path d="M5.69412 21.6147C5.11178 21.6147 4.6397 21.1426 4.6397 20.5603C4.6397 19.9779 5.11178 19.5059 5.69412 19.5059C6.27646 19.5059 6.74854 19.9779 6.74854 20.5603C6.74854 21.1426 6.27646 21.6147 5.69412 21.6147Z" fill="#FEFEFE"/>
</svg>
