<svg width="16" height="8" viewBox="0 0 16 8" fill="none" xmlns="http://www.w3.org/2000/svg">
<path d="M15.8167 4.55988C15.8165 4.56007 15.8163 4.56029 15.8161 4.56047L12.5504 7.8176C12.3057 8.0616 11.91 8.0607 11.6665 7.81547C11.423 7.57028 11.4239 7.17369 11.6686 6.92966L13.8612 4.74287L0.624999 4.74288C0.279812 4.74288 -3.09263e-07 4.46245 -3.39506e-07 4.1165C-3.69749e-07 3.77056 0.279812 3.49013 0.624999 3.49013L13.8611 3.49013L11.6686 1.30335C11.4239 1.05931 11.423 0.662728 11.6665 0.417535C11.91 0.17228 12.3058 0.171435 12.5504 0.415406L15.8161 3.67253C15.8163 3.67272 15.8165 3.67294 15.8167 3.67313C16.0615 3.91797 16.0607 4.31585 15.8167 4.55988Z" fill="white"/>
</svg>
