<svg width="16" height="20" viewBox="0 0 16 20" fill="none" xmlns="http://www.w3.org/2000/svg">
<path d="M15.9959 17.2795L14.8513 4.3904C14.8268 4.10424 14.5856 3.88759 14.3035 3.88759H11.9489C11.9162 1.73735 10.1584 0 8 0C5.84159 0 4.0838 1.73735 4.0511 3.88759H1.69647C1.41032 3.88759 1.17322 4.10424 1.1487 4.3904L0.00408798 17.2795C0.00408798 17.2959 0 17.3122 0 17.3286C0 18.7961 1.34492 19.9898 3.00051 19.9898H12.9995C14.6551 19.9898 16 18.7961 16 17.3286C16 17.3122 16 17.2959 15.9959 17.2795ZM8 1.10373C9.54931 1.10373 10.8125 2.34645 10.8452 3.88759H5.15483C5.18753 2.34645 6.45069 1.10373 8 1.10373ZM12.9995 18.8861H3.00051C1.96219 18.8861 1.12008 18.1993 1.10373 17.3531L2.19928 4.99541H4.04701V6.67144C4.04701 6.97803 4.29228 7.22331 4.59888 7.22331C4.90547 7.22331 5.15074 6.97803 5.15074 6.67144V4.99541H10.8452V6.67144C10.8452 6.97803 11.0904 7.22331 11.397 7.22331C11.7036 7.22331 11.9489 6.97803 11.9489 6.67144V4.99541H13.7966L14.8963 17.3531C14.8799 18.1993 14.0337 18.8861 12.9995 18.8861Z" fill="#5B5B5B"/>
</svg>
