<svg width="18" height="14" viewBox="0 0 18 14" fill="none" xmlns="http://www.w3.org/2000/svg">
<path d="M15.8026 0.000244141H2.20112C0.986964 0.000244141 0 0.987208 0 2.20136V11.4974C0 12.7116 0.986964 13.6986 2.20112 13.6986H15.7989C17.013 13.6986 18 12.7116 18 11.4974V2.20508C18.0037 0.990933 17.0168 0.000244141 15.8026 0.000244141ZM16.9981 11.4974C16.9981 12.1567 16.4618 12.693 15.8026 12.693H2.20112C1.5419 12.693 1.00559 12.1567 1.00559 11.4974V2.20508C1.00559 1.54587 1.5419 1.00955 2.20112 1.00955H15.7989C16.4581 1.00955 16.9944 1.54587 16.9944 2.20508V11.4974H16.9981Z" fill="#E46C3F"/>
<path d="M11.3519 6.7341L15.7542 2.78625C15.959 2.60003 15.9776 2.28345 15.7914 2.07489C15.6052 1.87005 15.2886 1.85143 15.08 2.03764L9.00928 7.48643L7.82493 6.4287C7.8212 6.42498 7.81748 6.42126 7.81748 6.41753C7.79141 6.39146 7.76534 6.36911 7.73554 6.34677L2.91618 2.03392C2.70761 1.8477 2.39104 1.86632 2.20482 2.07489C2.0186 2.28345 2.03722 2.60003 2.24579 2.78625L6.70016 6.76762L2.26441 10.9203C2.06329 11.1103 2.05212 11.4268 2.24206 11.6317C2.34262 11.736 2.4767 11.7918 2.61078 11.7918C2.73368 11.7918 2.85659 11.7471 2.95342 11.6578L7.45621 7.44546L8.67781 8.53671C8.77465 8.62237 8.89383 8.66334 9.01301 8.66334C9.13219 8.66334 9.25509 8.61865 9.3482 8.53299L10.6033 7.40822L15.08 11.6615C15.1769 11.7546 15.3035 11.7993 15.4264 11.7993C15.5605 11.7993 15.6908 11.7471 15.7914 11.6429C15.9813 11.4417 15.9739 11.1214 15.7728 10.9315L11.3519 6.7341Z" fill="#E46C3F"/>
</svg>
