<svg width="14" height="24" viewBox="0 0 14 24" fill="none" xmlns="http://www.w3.org/2000/svg">
<path d="M8.14053 22.5684H8.64053V22.0684V12.9588H11.3824H11.8217L11.8782 12.5232L12.3646 8.77707L12.4379 8.21269H11.8688H8.64053V6.32132C8.64053 5.80065 8.71919 5.50269 8.86859 5.32613C9.00228 5.16816 9.29024 4.99816 10.0071 4.99816H10.0073L12.0002 4.99735L12.5 4.99714V4.49735V1.14667V0.707132L12.0641 0.650792C11.696 0.603212 10.4914 0.5 9.0954 0.5C7.55707 0.5 6.20952 0.968553 5.24484 1.91676C4.27827 2.86682 3.7517 4.2437 3.7517 5.95031V8.21269H1H0.5V8.71269V12.4588V12.9588H1H3.7517V22.0684V22.5684H4.2517H8.14053Z" stroke="white"/>
</svg>
