<svg width="11" height="20" viewBox="0 0 11 20" fill="none" xmlns="http://www.w3.org/2000/svg">
<g opacity="0.3">
<path d="M6.79453 19.3805H3.69092C3.17251 19.3805 2.75081 18.9588 2.75081 18.4404V11.44H0.940103C0.421701 11.44 0 11.0182 0 10.4999V7.50027C0 6.98186 0.421701 6.56016 0.940103 6.56016H2.75081V5.05804C2.75081 3.56863 3.2185 2.30146 4.10315 1.39374C4.9918 0.48188 6.23369 0 7.69456 0L10.0615 0.00384438C10.579 0.00473156 11 0.426432 11 0.943947V3.72906C11 4.24746 10.5784 4.66916 10.0602 4.66916L8.46654 4.66976C7.98052 4.66976 7.85676 4.7672 7.8303 4.79706C7.78668 4.8466 7.73478 4.98662 7.73478 5.37328V6.56002H9.94042C10.1065 6.56002 10.2673 6.60097 10.4056 6.67816C10.7038 6.8448 10.8893 7.15989 10.8893 7.50041L10.8881 10.5001C10.8881 11.0182 10.4664 11.4399 9.94797 11.4399H7.73478V18.4404C7.73478 18.9588 7.31293 19.3805 6.79453 19.3805ZM3.88698 18.2443H6.59846V10.9314C6.59846 10.5852 6.88014 10.3037 7.22613 10.3037H9.7519L9.75294 7.69633H7.22599C6.87999 7.69633 6.59846 7.4148 6.59846 7.06866V5.37328C6.59846 4.9294 6.64356 4.4246 6.97861 4.04519C7.38346 3.58652 8.02148 3.53359 8.46625 3.53359L9.86383 3.533V1.13971L7.69367 1.13617C5.34593 1.13617 3.88698 2.63903 3.88698 5.05804V7.06866C3.88698 7.41465 3.60545 7.69633 3.25946 7.69633H1.13617V10.3037H3.25946C3.60545 10.3037 3.88698 10.5852 3.88698 10.9314V18.2443ZM10.0593 1.14001H10.0595H10.0593Z" fill="black"/>
</g>
</svg>
