<svg width="18" height="18" viewBox="0 0 18 18" fill="none" xmlns="http://www.w3.org/2000/svg">
<path d="M8.8556 6.75032H8.3556V7.25032V10.3755V10.8755H8.8556H12.5219C11.7966 12.1433 10.4249 13.0006 8.8556 13.0006C6.53054 13.0006 4.64224 11.1187 4.64224 8.8129C4.64224 6.5071 6.53054 4.62516 8.8556 4.62516C9.86334 4.62516 10.8308 4.98438 11.5809 5.63434L11.9567 5.95999L12.2844 5.58596L14.3488 3.22959L14.6801 2.85142L14.3001 2.5222C12.7945 1.21776 10.8618 0.5 8.8556 0.5C4.25045 0.5 0.5 4.22616 0.5 8.8129C0.5 13.3996 4.25045 17.1258 8.8556 17.1258C13.4608 17.1258 17.2112 13.3996 17.2112 8.8129V7.25032V6.75032H16.7112H8.8556Z" stroke="white"/>
</svg>
