<svg width="17" height="17" viewBox="0 0 17 17" fill="none" xmlns="http://www.w3.org/2000/svg">
<path opacity="0.3" d="M8.66764 17C8.61135 17 8.55506 17 8.49838 16.9997C7.16579 17.003 5.93451 16.9691 4.73707 16.8962C3.63925 16.8294 2.63716 16.4501 1.83895 15.7992C1.06877 15.1712 0.542814 14.3221 0.275752 13.2757C0.0433214 12.3646 0.0309994 11.4704 0.0191963 10.6054C0.0106358 9.98478 0.00181587 9.24938 0 8.50153C0.00181587 7.75057 0.0106358 7.01517 0.0191963 6.39456C0.0309994 5.52972 0.0433214 4.63543 0.275752 3.72429C0.542814 2.67787 1.06877 1.82872 1.83895 1.20072C2.63716 0.549881 3.63925 0.170508 4.7372 0.103712C5.93464 0.0309506 7.16618 -0.0030308 8.50162 0.000211708C9.8346 -0.00264169 11.0655 0.0309506 12.2629 0.103712C13.3607 0.170508 14.3628 0.549881 15.161 1.20072C15.9314 1.82872 16.4572 2.67787 16.7242 3.72429C16.9567 4.6353 16.969 5.52972 16.9808 6.39456C16.9894 7.01517 16.9983 7.75057 17 8.49842V8.50153C16.9983 9.24938 16.9894 9.98478 16.9808 10.6054C16.969 11.4702 16.9568 12.3645 16.7242 13.2757C16.4572 14.3221 15.9314 15.1712 15.161 15.7992C14.3628 16.4501 13.3607 16.8294 12.2629 16.8962C11.1162 16.966 9.93823 17 8.66764 17ZM8.49838 15.6716C9.8093 15.6747 11.013 15.6417 12.1823 15.5706C13.0124 15.5201 13.7321 15.2507 14.3217 14.7699C14.8667 14.3255 15.2421 13.7122 15.4373 12.9473C15.6308 12.1889 15.642 11.3746 15.6528 10.5872C15.6612 9.97077 15.67 9.24056 15.6718 8.49998C15.67 7.75926 15.6612 7.02918 15.6528 6.41271C15.642 5.6253 15.6308 4.81105 15.4373 4.05256C15.2421 3.28759 14.8667 2.67437 14.3217 2.22989C13.7321 1.74922 13.0124 1.47983 12.1823 1.42938C11.013 1.35817 9.8093 1.32536 8.50149 1.32821C7.19083 1.3251 5.98704 1.35817 4.81775 1.42938C3.98764 1.47983 3.26791 1.74922 2.67827 2.22989C2.13325 2.67437 1.75789 3.28759 1.56268 4.05256C1.36916 4.81105 1.35801 5.62517 1.34724 6.41271C1.33881 7.0297 1.32999 7.7603 1.32818 8.50153C1.32999 9.23953 1.33881 9.97026 1.34724 10.5872C1.35801 11.3746 1.36916 12.1889 1.56268 12.9473C1.75789 13.7122 2.13325 14.3255 2.67827 14.7699C3.26791 15.2506 3.98764 15.52 4.81775 15.5704C5.98704 15.6417 7.19109 15.6749 8.49838 15.6716ZM8.46673 12.6504C6.17822 12.6504 4.31618 10.7885 4.31618 8.49998C4.31618 6.21142 6.17822 4.34957 8.46673 4.34957C10.7554 4.34957 12.6173 6.21142 12.6173 8.49998C12.6173 10.7885 10.7554 12.6504 8.46673 12.6504ZM8.46673 5.6777C6.91053 5.6777 5.64436 6.94383 5.64436 8.49998C5.64436 10.0561 6.91053 11.3222 8.46673 11.3222C10.0231 11.3222 11.2891 10.0561 11.2891 8.49998C11.2891 6.94383 10.0231 5.6777 8.46673 5.6777ZM13.0821 3.02145C12.5321 3.02145 12.086 3.46735 12.086 4.01754C12.086 4.56773 12.5321 5.01364 13.0821 5.01364C13.6323 5.01364 14.0783 4.56773 14.0783 4.01754C14.0783 3.46735 13.6323 3.02145 13.0821 3.02145Z" fill="black"/>
</svg>
