<svg width="15" height="22" viewBox="0 0 15 22" fill="none" xmlns="http://www.w3.org/2000/svg">
<path d="M7.5 0.000244141C3.3645 0.000244141 0 3.36474 0 7.50024C0 8.89749 0.387042 10.2611 1.11954 11.4441L7.07308 21.0381C7.18713 21.2219 7.38804 21.3336 7.60413 21.3336C7.60579 21.3336 7.60742 21.3336 7.60908 21.3336C7.82704 21.3319 8.02838 21.2167 8.14033 21.0297L13.9421 11.3427C14.6342 10.1847 15 8.85604 15 7.50024C15 3.36474 11.6355 0.000244141 7.5 0.000244141ZM12.8694 10.701L7.59467 19.508L2.18196 10.7855C1.57225 9.80083 1.24167 8.66483 1.24167 7.50024C1.24167 4.05399 4.05375 1.24191 7.5 1.24191C10.9462 1.24191 13.7542 4.05399 13.7542 7.50024C13.7542 8.63029 13.4454 9.73724 12.8694 10.701Z" fill="#E46C3F"/>
<path d="M7.5 3.75024C5.43225 3.75024 3.75 5.43249 3.75 7.50024C3.75 9.55479 5.40488 11.2502 7.5 11.2502C9.62096 11.2502 11.25 9.5322 11.25 7.50024C11.25 5.43249 9.56775 3.75024 7.5 3.75024ZM7.5 10.0086C6.11429 10.0086 4.99167 8.8822 4.99167 7.50024C4.99167 6.12174 6.1215 4.99191 7.5 4.99191C8.8785 4.99191 10.0042 6.12174 10.0042 7.50024C10.0042 8.86204 8.90767 10.0086 7.5 10.0086Z" fill="#E46C3F"/>
</svg>
