<svg width="15" height="21" viewBox="0 0 15 21" fill="none" xmlns="http://www.w3.org/2000/svg">
<g opacity="0.8">
<path d="M13.125 20.3261H1.875C0.841667 20.3261 0 19.4899 0 18.4613V9.75888C0 8.73034 0.841667 7.89407 1.875 7.89407H13.125C14.1583 7.89407 15 8.73034 15 9.75888V18.4613C15 19.4899 14.1583 20.3261 13.125 20.3261ZM1.875 9.13728C1.53083 9.13728 1.25 9.41576 1.25 9.75888V18.4613C1.25 18.8045 1.53083 19.0829 1.875 19.0829H13.125C13.4692 19.0829 13.75 18.8045 13.75 18.4613V9.75888C13.75 9.41576 13.4692 9.13728 13.125 9.13728H1.875Z" fill="#7B7B7B"/>
<path d="M11.873 9.13727C11.528 9.13727 11.248 8.85879 11.248 8.51566V5.40765C11.248 3.35138 9.56555 1.67802 7.49805 1.67802C5.43055 1.67802 3.74805 3.35138 3.74805 5.40765V8.51566C3.74805 8.85879 3.46805 9.13727 3.12305 9.13727C2.77805 9.13727 2.49805 8.85879 2.49805 8.51566V5.40765C2.49805 2.66513 4.74055 0.434814 7.49805 0.434814C10.2555 0.434814 12.498 2.66513 12.498 5.40765V8.51566C12.498 8.85879 12.218 9.13727 11.873 9.13727Z" fill="#7B7B7B"/>
<path d="M7.50458 14.5245C6.5854 14.5245 5.83789 13.781 5.83789 12.8669C5.83789 11.9527 6.5854 11.2093 7.50458 11.2093C8.42376 11.2093 9.17126 11.9527 9.17126 12.8669C9.17126 13.781 8.42376 14.5245 7.50458 14.5245ZM7.50458 12.4525C7.27541 12.4525 7.08791 12.6381 7.08791 12.8669C7.08791 13.0956 7.27541 13.2813 7.50458 13.2813C7.73375 13.2813 7.92125 13.0956 7.92125 12.8669C7.92125 12.6381 7.73375 12.4525 7.50458 12.4525Z" fill="#7B7B7B"/>
<path d="M7.50195 17.0109C7.15695 17.0109 6.87695 16.7324 6.87695 16.3893V14.1101C6.87695 13.7669 7.15695 13.4885 7.50195 13.4885C7.84695 13.4885 8.12695 13.7669 8.12695 14.1101V16.3893C8.12695 16.7324 7.84695 17.0109 7.50195 17.0109Z" fill="#7B7B7B"/>
</g>
</svg>
