<svg width="29" height="18" viewBox="0 0 29 18" fill="none" xmlns="http://www.w3.org/2000/svg">
<g style="mix-blend-mode:luminosity" opacity="0.7">
<path d="M29 8.74983C29 13.5646 25.1332 17.4997 20.2998 17.4997C15.5124 17.4997 11.5996 13.5646 11.5996 8.74983C11.5996 3.93511 15.4664 0 20.2538 0C25.1332 0 29 3.93511 29 8.74983Z" fill="#FFB600"/>
<path d="M20.2998 0C25.0872 0 29 3.93511 29 8.74983C29 13.5646 25.1332 17.4997 20.2998 17.4997C15.5124 17.4997 11.5996 13.5646 11.5996 8.74983" fill="#F7981D"/>
<path d="M20.2998 0C25.0872 0 29 3.93511 29 8.74983C29 13.5646 25.1332 17.4997 20.2998 17.4997" fill="#FF8500"/>
<path d="M8.60811 0C3.86675 0.0462954 0 3.93511 0 8.74983C0 13.5646 3.86675 17.4997 8.70018 17.4997C10.9558 17.4997 12.9812 16.6201 14.5463 15.2312C14.8686 14.9534 15.1448 14.6294 15.421 14.3053H13.6257C13.3955 14.0275 13.1654 13.7034 12.9812 13.4257H16.0654C16.2495 13.1479 16.4337 12.8238 16.5718 12.4998H12.4749C12.3368 12.222 12.1987 11.8979 12.1066 11.5739H16.894C17.1702 10.6942 17.3543 9.76833 17.3543 8.79613C17.3543 8.14799 17.2623 7.54615 17.1702 6.94431H11.8304C11.8764 6.62024 11.9685 6.34247 12.0606 6.0184H16.848C16.7559 5.69434 16.6178 5.37027 16.4797 5.0925H12.4288C12.5669 4.76843 12.7511 4.49066 12.9352 4.16659H16.0194C15.8352 3.84252 15.6051 3.51845 15.3289 3.24068H13.6257C13.9019 2.91661 14.1781 2.63884 14.5003 2.36107C12.9812 0.925909 10.9097 0.0925907 8.65415 0.0925907C8.65415 -8.96812e-08 8.65415 0 8.60811 0Z" fill="#FF5050"/>
<path d="M0 8.7499C0 13.5646 3.86675 17.4997 8.70018 17.4997C10.9558 17.4997 12.9812 16.6201 14.5463 15.2313C14.8686 14.9535 15.1448 14.6294 15.421 14.3053H13.6257C13.3955 14.0276 13.1654 13.7035 12.9812 13.4257H16.0654C16.2495 13.148 16.4337 12.8239 16.5718 12.4998H12.4749C12.3368 12.2221 12.1987 11.898 12.1066 11.5739H16.894C17.1702 10.6943 17.3543 9.76839 17.3543 8.79619C17.3543 8.14805 17.2623 7.54621 17.1702 6.94437H11.8304C11.8764 6.62031 11.9685 6.34253 12.0606 6.01847H16.848C16.7559 5.6944 16.6178 5.37033 16.4797 5.09256H12.4288C12.5669 4.76849 12.7511 4.49072 12.9352 4.16665H16.0194C15.8352 3.84258 15.6051 3.51851 15.3289 3.24074H13.6257C13.9019 2.91667 14.1781 2.6389 14.5003 2.36113C12.9812 0.925969 10.9097 0.0926514 8.65415 0.0926514H8.60811" fill="#E52836"/>
<path d="M8.70046 17.4997C10.9561 17.4997 12.9815 16.6201 14.5466 15.2313C14.8688 14.9535 15.145 14.6294 15.4212 14.3053H13.626C13.3958 14.0276 13.1656 13.7035 12.9815 13.4257H16.0657C16.2498 13.148 16.434 12.8239 16.5721 12.4998H12.4751C12.337 12.2221 12.1989 11.898 12.1069 11.5739H16.8943C17.1705 10.6943 17.3546 9.76839 17.3546 8.79619C17.3546 8.14805 17.2625 7.54621 17.1705 6.94437H11.8307C11.8767 6.62031 11.9688 6.34253 12.0609 6.01847H16.8482C16.7562 5.6944 16.6181 5.37033 16.48 5.09256H12.4291C12.5672 4.76849 12.7513 4.49072 12.9355 4.16665H16.0197C15.8355 3.84258 15.6054 3.51851 15.3292 3.24074H13.626C13.9022 2.91667 14.1784 2.6389 14.5006 2.36113C12.9815 0.925969 10.91 0.0926514 8.65443 0.0926514H8.6084" fill="#CB2026"/>
<path d="M11.7842 10.9719L11.9223 10.1849C11.8762 10.1849 11.7842 10.2312 11.6921 10.2312C11.3699 10.2312 11.3238 10.046 11.3699 9.95345L11.6461 8.33311H12.1524L12.2905 7.45349H11.8302L11.9223 6.89795H11.0016C11.0016 6.89795 10.4492 9.95345 10.4492 10.3238C10.4492 10.8794 10.7714 11.1108 11.1857 11.1108C11.4619 11.1108 11.6921 11.0182 11.7842 10.9719Z" fill="white"/>
<path d="M12.1064 9.49052C12.1064 10.7868 12.9811 11.1109 13.7176 11.1109C14.4081 11.1109 14.6843 10.972 14.6843 10.972L14.8684 10.0924C14.8684 10.0924 14.362 10.3238 13.9017 10.3238C12.889 10.3238 13.0731 9.58311 13.0731 9.58311H14.9605C14.9605 9.58311 15.0986 8.98127 15.0986 8.74979C15.0986 8.14795 14.7763 7.40723 13.7636 7.40723C12.7969 7.31464 12.1064 8.33313 12.1064 9.49052ZM13.7176 8.14795C14.2239 8.14795 14.1319 8.74979 14.1319 8.79609H13.1192C13.1192 8.74979 13.2112 8.14795 13.7176 8.14795Z" fill="white"/>
<path d="M19.565 10.972L19.7491 9.95354C19.7491 9.95354 19.2888 10.185 18.9666 10.185C18.3221 10.185 18.0459 9.67577 18.0459 9.12022C18.0459 8.00913 18.5983 7.40729 19.2428 7.40729C19.7031 7.40729 20.0714 7.68507 20.0714 7.68507L20.2095 6.71286C20.2095 6.71286 19.6571 6.48138 19.1507 6.48138C18.092 6.48138 17.0332 7.40729 17.0332 9.16652C17.0332 10.3239 17.5856 11.1109 18.6904 11.1109C19.0586 11.1109 19.565 10.972 19.565 10.972Z" fill="white"/>
<path d="M6.71995 7.31464C6.07549 7.31464 5.61516 7.49982 5.61516 7.49982L5.47706 8.28684C5.47706 8.28684 5.89136 8.10166 6.48978 8.10166C6.81201 8.10166 7.08821 8.14795 7.08821 8.42573C7.08821 8.61091 7.04217 8.6572 7.04217 8.6572C7.04217 8.6572 6.76598 8.6572 6.62788 8.6572C5.84532 8.6572 4.9707 8.98127 4.9707 10.0461C4.9707 10.8794 5.5231 11.0646 5.84532 11.0646C6.48978 11.0646 6.76598 10.6479 6.81201 10.6479L6.76598 11.0183H7.59457L7.96283 8.47202C7.96283 7.36093 7.04217 7.31464 6.71995 7.31464ZM6.90408 9.39793C6.90408 9.53682 6.81201 10.2775 6.25962 10.2775C5.98342 10.2775 5.89136 10.0461 5.89136 9.90718C5.89136 9.6757 6.02946 9.35164 6.71995 9.35164C6.85804 9.39793 6.90408 9.39793 6.90408 9.39793Z" fill="white"/>
<path d="M8.83903 11.0646C9.06919 11.0646 10.22 11.1109 10.22 9.86092C10.22 8.70353 9.11522 8.93501 9.11522 8.47205C9.11522 8.24058 9.29935 8.14799 9.62158 8.14799C9.75968 8.14799 10.266 8.19428 10.266 8.19428L10.4041 7.36096C10.4041 7.36096 10.0819 7.26837 9.52952 7.26837C8.83903 7.26837 8.14854 7.54614 8.14854 8.47205C8.14854 9.53685 9.29935 9.44426 9.29935 9.86092C9.29935 10.1387 8.97712 10.185 8.74696 10.185C8.33267 10.185 7.91837 10.0461 7.91837 10.0461L7.78027 10.8794C7.82631 10.972 8.05647 11.0646 8.83903 11.0646Z" fill="white"/>
<path d="M27.2049 6.57391L27.0208 7.82389C27.0208 7.82389 26.6525 7.36094 26.1462 7.36094C25.3176 7.36094 24.5811 8.37944 24.5811 9.58312C24.5811 10.3238 24.9493 11.1109 25.7319 11.1109C26.2843 11.1109 26.6065 10.7405 26.6065 10.7405L26.5605 11.0646H27.4811L28.1716 6.62021L27.2049 6.57391ZM26.7906 9.02757C26.7906 9.53682 26.5605 10.185 26.0541 10.185C25.7319 10.185 25.5477 9.90719 25.5477 9.44423C25.5477 8.7035 25.87 8.24055 26.2843 8.24055C26.6065 8.24055 26.7906 8.47203 26.7906 9.02757Z" fill="white"/>
<path d="M1.70372 11.0183L2.25612 7.685L2.34818 11.0183H2.99264L4.18949 7.685L3.68313 11.0183H4.64982L5.38634 6.57391H3.86726L2.94661 9.30534L2.90057 6.57391H1.56562L0.829102 11.0183H1.70372Z" fill="white"/>
<path d="M15.9737 11.0183C16.2499 9.49058 16.2959 8.2406 16.9403 8.47208C17.0324 7.87024 17.1705 7.63876 17.2626 7.40729C17.2626 7.40729 17.2165 7.40729 17.0784 7.40729C16.6641 7.40729 16.3419 7.96283 16.3419 7.96283L16.434 7.45358H15.5594L14.9609 11.0646H15.9737V11.0183Z" fill="white"/>
<path d="M21.6799 7.31464C21.0354 7.31464 20.5751 7.49982 20.5751 7.49982L20.437 8.28684C20.437 8.28684 20.8513 8.10166 21.4497 8.10166C21.772 8.10166 22.0482 8.14795 22.0482 8.42573C22.0482 8.61091 22.0021 8.6572 22.0021 8.6572C22.0021 8.6572 21.7259 8.6572 21.5878 8.6572C20.8053 8.6572 19.9307 8.98127 19.9307 10.0461C19.9307 10.8794 20.4831 11.0646 20.8053 11.0646C21.4497 11.0646 21.7259 10.6479 21.772 10.6479L21.7259 11.0183H22.5545L22.9228 8.47202C22.9688 7.36093 22.0021 7.31464 21.6799 7.31464ZM21.9101 9.39793C21.9101 9.53682 21.818 10.2775 21.2656 10.2775C20.9894 10.2775 20.8974 10.0461 20.8974 9.90718C20.8974 9.6757 21.0354 9.35164 21.7259 9.35164C21.864 9.39793 21.864 9.39793 21.9101 9.39793Z" fill="white"/>
<path d="M23.7061 11.0183C23.9823 9.49058 24.0283 8.2406 24.6728 8.47208C24.7648 7.87024 24.9029 7.63876 24.995 7.40729C24.995 7.40729 24.949 7.40729 24.8109 7.40729C24.3966 7.40729 24.0743 7.96283 24.0743 7.96283L24.1664 7.45358H23.2918L22.6934 11.0646H23.7061V11.0183Z" fill="white"/>
<path d="M10.3574 10.3238C10.3574 10.8794 10.6797 11.1108 11.0939 11.1108C11.4162 11.1108 11.6924 11.0182 11.7844 10.9719L11.9225 10.1849C11.8765 10.1849 11.7844 10.2312 11.6924 10.2312C11.3701 10.2312 11.3241 10.046 11.3701 9.95345L11.6463 8.33311H12.1527L12.2908 7.45349H11.8305L11.9225 6.89795" fill="#DCE5E5"/>
<path d="M12.5674 9.49052C12.5674 10.7868 12.9817 11.1109 13.7182 11.1109C14.4087 11.1109 14.6849 10.972 14.6849 10.972L14.869 10.0924C14.869 10.0924 14.3627 10.3238 13.9023 10.3238C12.8896 10.3238 13.0737 9.58311 13.0737 9.58311H14.9611C14.9611 9.58311 15.0992 8.98127 15.0992 8.74979C15.0992 8.14795 14.777 7.40723 13.7642 7.40723C12.7975 7.31464 12.5674 8.33313 12.5674 9.49052ZM13.7182 8.14795C14.2246 8.14795 14.3166 8.74979 14.3166 8.79609H13.1198C13.1198 8.74979 13.2118 8.14795 13.7182 8.14795Z" fill="#DCE5E5"/>
<path d="M19.5646 10.972L19.7488 9.95354C19.7488 9.95354 19.2884 10.185 18.9662 10.185C18.3218 10.185 18.0456 9.67577 18.0456 9.12022C18.0456 8.00913 18.5979 7.40729 19.2424 7.40729C19.7027 7.40729 20.071 7.68507 20.071 7.68507L20.2091 6.71286C20.2091 6.71286 19.6567 6.48138 19.1503 6.48138C18.0916 6.48138 17.4932 7.40729 17.4932 9.16652C17.4932 10.3239 17.5852 11.1109 18.69 11.1109C19.0583 11.1109 19.5646 10.972 19.5646 10.972Z" fill="#DCE5E5"/>
<path d="M5.47706 8.3332C5.47706 8.3332 5.89136 8.14801 6.48978 8.14801C6.81201 8.14801 7.08821 8.19431 7.08821 8.47208C7.08821 8.65726 7.04217 8.70356 7.04217 8.70356C7.04217 8.70356 6.76598 8.70356 6.62788 8.70356C5.84532 8.70356 4.9707 9.02763 4.9707 10.0924C4.9707 10.9257 5.5231 11.1109 5.84532 11.1109C6.48978 11.1109 6.76598 10.6943 6.81201 10.6943L6.76598 11.0646H7.59457L7.96283 8.51838C7.96283 7.45358 7.04217 7.40729 6.67391 7.40729L5.47706 8.3332ZM7.3644 9.39799C7.3644 9.53688 6.81201 10.2776 6.25962 10.2776C5.98342 10.2776 5.89136 10.0461 5.89136 9.90724C5.89136 9.67576 6.02946 9.3517 6.71995 9.3517C6.85804 9.39799 7.3644 9.39799 7.3644 9.39799Z" fill="#DCE5E5"/>
<path d="M7.82422 10.972C7.82422 10.972 8.10041 11.0646 8.88297 11.0646C9.11313 11.0646 10.264 11.1109 10.264 9.86092C10.264 8.70353 9.15917 8.93501 9.15917 8.47205C9.15917 8.24058 9.3433 8.14799 9.66553 8.14799C9.80363 8.14799 10.31 8.19428 10.31 8.19428L10.4481 7.36096C10.4481 7.36096 10.1259 7.26837 9.57346 7.26837C8.88297 7.26837 8.65281 7.54614 8.65281 8.47205C8.65281 9.53685 9.3433 9.44426 9.3433 9.86092C9.3433 10.1387 9.02107 10.185 8.79091 10.185" fill="#DCE5E5"/>
<path d="M27.0228 7.82392C27.0228 7.82392 26.6545 7.36097 26.1482 7.36097C25.3196 7.36097 25.0434 8.37946 25.0434 9.58315C25.0434 10.3239 24.9513 11.1109 25.7339 11.1109C26.2863 11.1109 26.6085 10.7405 26.6085 10.7405L26.5625 11.0646H27.4831L28.1736 6.62024L27.0228 7.82392ZM26.9768 9.0276C26.9768 9.53685 26.5625 10.185 26.0561 10.185C25.7339 10.185 25.5497 9.90721 25.5497 9.44426C25.5497 8.70353 25.872 8.24058 26.2863 8.24058C26.6085 8.24058 26.9768 8.47206 26.9768 9.0276Z" fill="#DCE5E5"/>
<path d="M1.70372 11.0183L2.25612 7.685L2.34818 11.0183H2.99264L4.18949 7.685L3.68313 11.0183H4.64982L5.38634 6.57391H4.23552L2.94661 9.30534L2.90057 6.57391H2.39421L0.829102 11.0183H1.70372Z" fill="#DCE5E5"/>
<path d="M15.0078 11.0183H15.9745C16.2507 9.49058 16.2967 8.2406 16.9412 8.47208C17.0333 7.87024 17.1714 7.63876 17.2634 7.40729C17.2634 7.40729 17.2174 7.40729 17.0793 7.40729C16.665 7.40729 16.3428 7.96283 16.3428 7.96283L16.4348 7.45358" fill="#DCE5E5"/>
<path d="M20.437 8.3332C20.437 8.3332 20.8513 8.14801 21.4497 8.14801C21.772 8.14801 22.0482 8.19431 22.0482 8.47208C22.0482 8.65726 22.0021 8.70356 22.0021 8.70356C22.0021 8.70356 21.7259 8.70356 21.5878 8.70356C20.8053 8.70356 19.9307 9.02763 19.9307 10.0924C19.9307 10.9257 20.4831 11.1109 20.8053 11.1109C21.4497 11.1109 21.7259 10.6943 21.772 10.6943L21.7259 11.0646H22.5545L22.9228 8.51838C22.9228 7.45358 22.0021 7.40729 21.6339 7.40729L20.437 8.3332ZM22.3244 9.39799C22.3244 9.53688 21.772 10.2776 21.2196 10.2776C20.9434 10.2776 20.8513 10.0461 20.8513 9.90724C20.8513 9.67576 20.9894 9.3517 21.6799 9.3517C21.864 9.39799 22.3244 9.39799 22.3244 9.39799Z" fill="#DCE5E5"/>
<path d="M22.7402 11.0183H23.7069C23.9831 9.49058 24.0291 8.2406 24.6736 8.47208C24.7657 7.87024 24.9038 7.63876 24.9958 7.40729C24.9958 7.40729 24.9498 7.40729 24.8117 7.40729C24.3974 7.40729 24.0752 7.96283 24.0752 7.96283L24.1672 7.45358" fill="#DCE5E5"/>
</g>
</svg>
