<svg width="18" height="18" viewBox="0 0 18 18" fill="none" xmlns="http://www.w3.org/2000/svg">
<path d="M15.1526 10.7301C14.7598 10.3228 14.2859 10.1051 13.7836 10.1051C13.2854 10.1051 12.8075 10.3188 12.3984 10.7261L11.1185 11.9962C11.0132 11.9398 10.9079 11.8873 10.8067 11.8349C10.6609 11.7623 10.5231 11.6938 10.4057 11.6212C9.2068 10.8631 8.11727 9.87524 7.07229 8.59702C6.566 7.95992 6.22578 7.42363 5.97871 6.87928C6.31083 6.57686 6.61866 6.26234 6.91838 5.95992C7.03179 5.84702 7.1452 5.73008 7.2586 5.61718C8.10917 4.7704 8.10917 3.67363 7.2586 2.82686L6.15287 1.72605C6.02731 1.60105 5.8977 1.47202 5.77619 1.34299C5.53317 1.09299 5.27801 0.834921 5.01474 0.592986C4.62186 0.205889 4.15202 0.000244141 3.65789 0.000244141C3.16375 0.000244141 2.68581 0.205889 2.28078 0.592986C2.27673 0.597018 2.27673 0.597018 2.27268 0.601051L0.895582 1.98412C0.377143 2.50024 0.0814712 3.12928 0.0166664 3.85912C-0.0805408 5.03653 0.267785 6.13331 0.535105 6.85105C1.19125 8.61315 2.17143 10.2462 3.63358 11.9962C5.40762 14.1051 7.54212 15.7704 9.9804 16.9438C10.912 17.3833 12.1554 17.9035 13.5447 17.9922C13.6297 17.9962 13.7188 18.0002 13.7998 18.0002C14.7355 18.0002 15.5212 17.6656 16.1369 17.0002C16.1409 16.9922 16.149 16.9881 16.1531 16.9801C16.3637 16.726 16.6067 16.4962 16.8619 16.2502C17.036 16.0849 17.2142 15.9115 17.3884 15.7301C17.7894 15.3148 18 14.8309 18 14.3349C18 13.8349 17.7853 13.3551 17.3763 12.9519L15.1526 10.7301ZM16.6026 14.976C16.5986 14.976 16.5986 14.9801 16.6026 14.976C16.4447 15.1454 16.2827 15.2986 16.1085 15.468C15.8452 15.718 15.5779 15.9801 15.3268 16.2744C14.9177 16.7099 14.4357 16.9156 13.8039 16.9156C13.7431 16.9156 13.6783 16.9156 13.6176 16.9115C12.4146 16.8349 11.2968 16.3672 10.4583 15.968C8.16587 14.8631 6.15287 13.2946 4.4801 11.3067C3.09895 9.64944 2.17548 8.11718 1.56388 6.47202C1.1872 5.46799 1.04949 4.68573 1.11025 3.94782C1.15075 3.47605 1.33301 3.08492 1.66919 2.75024L3.05034 1.37524C3.24881 1.18976 3.45942 1.08895 3.66599 1.08895C3.92116 1.08895 4.12772 1.24218 4.25733 1.37121C4.26138 1.37524 4.26543 1.37928 4.26948 1.38331C4.51655 1.61315 4.75147 1.85105 4.99854 2.10508C5.12409 2.23412 5.2537 2.36315 5.38331 2.49621L6.48905 3.59702C6.91838 4.02444 6.91838 4.4196 6.48905 4.84702C6.37159 4.96395 6.25818 5.08089 6.14072 5.19379C5.8005 5.54057 5.47647 5.86315 5.1241 6.17766C5.11599 6.18573 5.10789 6.18976 5.10384 6.19782C4.75552 6.5446 4.82032 6.88331 4.89323 7.11315C4.89728 7.12524 4.90133 7.13734 4.90538 7.14944C5.19295 7.84299 5.59798 8.49621 6.21363 9.27444L6.21768 9.27847C7.33556 10.6494 8.5142 11.718 9.81434 12.5365C9.98041 12.6414 10.1505 12.7261 10.3125 12.8067C10.4583 12.8793 10.5961 12.9478 10.7135 13.0204C10.7297 13.0285 10.7459 13.0406 10.7621 13.0486C10.8998 13.1172 11.0294 13.1494 11.1631 13.1494C11.4993 13.1494 11.7099 12.9398 11.7787 12.8712L13.1639 11.4922C13.3017 11.3551 13.5204 11.1898 13.7755 11.1898C14.0267 11.1898 14.2332 11.347 14.3588 11.4841C14.3628 11.4881 14.3628 11.4881 14.3669 11.4922L16.5986 13.714C17.0158 14.1252 17.0158 14.5486 16.6026 14.976Z" fill="#E46C3F"/>
</svg>
