<svg width="20" height="16" viewBox="0 0 20 16" fill="none" xmlns="http://www.w3.org/2000/svg">
<path opacity="0.3" d="M20 2.10869C18.7419 2.16462 18.7694 2.16006 18.6272 2.17154L19.3723 0.119058C19.3723 0.119058 17.0465 0.944319 16.4569 1.09194C14.9084 -0.250521 12.6068 -0.309836 10.9613 0.6657C9.6138 1.46476 8.89053 2.83696 9.13177 4.44082C6.50925 4.08979 4.29962 2.89068 2.55508 0.869255L2.00333 0.230035L1.59103 0.960362C1.06995 1.88321 0.896912 2.93837 1.10367 3.93142C1.18851 4.33883 1.3327 4.72739 1.53244 5.09123L1.05911 4.91432L1.00296 5.67717C0.946045 6.4521 1.21353 7.35669 1.7186 8.09673C1.86081 8.30514 2.04391 8.53401 2.276 8.7598L2.0314 8.72359L2.32986 9.59771C2.72217 10.7462 3.53699 11.6347 4.59442 12.1287C3.53836 12.561 2.68524 12.8368 1.28296 13.2817L0 13.6885L1.185 14.3135C1.63681 14.5518 3.23334 15.3476 4.81079 15.5863C8.31726 16.1168 12.2652 15.6848 14.9229 13.3759C17.1616 11.4312 17.8961 8.66486 17.7435 5.78609C17.7205 5.35028 17.8442 4.93433 18.092 4.61509C18.5884 3.97587 19.9969 2.11296 20 2.10869ZM17.155 3.93804C16.7435 4.46805 16.5373 5.14495 16.5742 5.84378C16.7282 8.74758 15.9091 10.9995 14.1396 12.5367C12.0724 14.3325 8.73825 15.0373 4.99222 14.4705C4.31381 14.368 3.61267 14.1382 3.03238 13.9087C4.20807 13.5186 5.11597 13.1708 6.58218 12.5014L8.629 11.5669L6.36917 11.4274C5.28671 11.3605 4.38538 10.8545 3.83133 10.0329C4.12552 10.0165 4.40918 9.97053 4.69162 9.89458L6.84692 9.31556L4.67361 8.80218C3.61755 8.55271 3.01559 7.94322 2.69653 7.47576C2.48703 7.16859 2.35016 6.85391 2.26807 6.56381C2.48596 6.62018 2.74002 6.66036 3.14972 6.69951L5.16129 6.89144L3.5675 5.69218C2.41913 4.82821 1.95892 3.5302 2.2963 2.28237C5.88028 5.86807 10.0883 5.59857 10.5119 5.69336C10.4187 4.81982 10.4163 4.81776 10.3918 4.7346C9.8494 2.88494 11.0382 1.94576 11.5744 1.62784C12.6944 0.963895 14.4722 0.86381 15.7036 1.95768C15.9695 2.19376 16.3292 2.28664 16.6658 2.20598C16.9679 2.13357 17.2159 2.05688 17.4586 1.97343L16.9533 3.3655L17.5984 3.36594C17.4767 3.52343 17.3306 3.71197 17.155 3.93804Z" fill="black"/>
</svg>
