<svg width="17" height="21" viewBox="0 0 17 21" fill="none" xmlns="http://www.w3.org/2000/svg">
<path d="M8.37144 9.81533C9.71989 9.81533 10.8874 9.3317 11.8416 8.3775C12.7955 7.42345 13.2793 6.25611 13.2793 4.90751C13.2793 3.55938 12.7956 2.39188 11.8414 1.43752C10.8872 0.483631 9.71974 0 8.37144 0C7.02284 0 5.85551 0.483631 4.90146 1.43768C3.94741 2.39173 3.46362 3.55922 3.46362 4.90751C3.46362 6.25611 3.94741 7.42361 4.90146 8.37765C5.85582 9.33155 7.02331 9.81533 8.37144 9.81533ZM5.74591 2.28197C6.47796 1.54992 7.33671 1.19408 8.37144 1.19408C9.40602 1.19408 10.2649 1.54992 10.9971 2.28197C11.7292 3.01418 12.0852 3.87309 12.0852 4.90751C12.0852 5.94224 11.7292 6.80099 10.9971 7.5332C10.2649 8.26541 9.40602 8.62126 8.37144 8.62126C7.33702 8.62126 6.47827 8.26526 5.74591 7.5332C5.0137 6.80115 4.6577 5.94224 4.6577 4.90751C4.6577 3.87309 5.0137 3.01418 5.74591 2.28197Z" fill="#5B5B5B"/>
<path d="M16.9588 15.6683C16.9313 15.2713 16.8756 14.8382 16.7937 14.3808C16.711 13.92 16.6045 13.4844 16.477 13.0863C16.3452 12.6748 16.1663 12.2684 15.9447 11.879C15.7151 11.4748 15.4453 11.1229 15.1424 10.8332C14.8258 10.5302 14.438 10.2866 13.9897 10.109C13.5429 9.9322 13.0478 9.84265 12.5181 9.84265C12.3101 9.84265 12.109 9.928 11.7205 10.1809C11.4814 10.3369 11.2017 10.5172 10.8896 10.7166C10.6226 10.8867 10.261 11.0461 9.8144 11.1903C9.37865 11.3313 8.93622 11.4028 8.49938 11.4028C8.06285 11.4028 7.62042 11.3313 7.18436 11.1903C6.73819 11.0462 6.37644 10.8869 6.10998 10.7168C5.80078 10.5192 5.52095 10.3389 5.27828 10.1808C4.8901 9.92785 4.68894 9.8425 4.48093 9.8425C3.95113 9.8425 3.45615 9.9322 3.00952 10.1091C2.56149 10.2865 2.17362 10.5301 1.85664 10.8334C1.55381 11.1232 1.28393 11.475 1.05447 11.879C0.833257 12.2684 0.654169 12.6746 0.52234 13.0864C0.39502 13.4846 0.288531 13.92 0.205827 14.3808C0.123745 14.8375 0.0682463 15.2708 0.0407301 15.6688C0.0136803 16.0579 0 16.4629 0 16.872C0 17.9357 0.338122 18.7967 1.00488 19.4318C1.66341 20.0584 2.53459 20.3762 3.59435 20.3762H13.4056C14.4651 20.3762 15.3363 20.0584 15.995 19.4318C16.6619 18.7972 17 17.9358 17 16.8719C16.9998 16.4613 16.986 16.0563 16.9588 15.6683ZM15.1717 18.5667C14.7365 18.9808 14.1588 19.1821 13.4055 19.1821H3.59435C2.84085 19.1821 2.26316 18.9808 1.82819 18.5668C1.40146 18.1606 1.19408 17.6061 1.19408 16.872C1.19408 16.4902 1.20667 16.1132 1.23185 15.7513C1.25641 15.3963 1.30663 15.0062 1.38109 14.5918C1.45462 14.1824 1.54821 13.7983 1.65952 13.4505C1.76632 13.1171 1.91198 12.7869 2.09263 12.4688C2.26503 12.1657 2.46339 11.9056 2.68228 11.696C2.88702 11.5 3.14508 11.3396 3.44916 11.2192C3.73038 11.1079 4.04643 11.047 4.38952 11.0378C4.43134 11.06 4.50581 11.1025 4.62644 11.1812C4.87191 11.3411 5.15485 11.5236 5.46763 11.7234C5.82021 11.9482 6.27446 12.1512 6.81716 12.3264C7.37199 12.5058 7.93786 12.5969 8.49953 12.5969C9.0612 12.5969 9.62723 12.5058 10.1817 12.3266C10.7249 12.1511 11.179 11.9482 11.5321 11.7231C11.8521 11.5185 12.1272 11.3413 12.3726 11.1812C12.4933 11.1026 12.5677 11.06 12.6095 11.0378C12.9528 11.047 13.2688 11.1079 13.5502 11.2192C13.8541 11.3396 14.1122 11.5002 14.3169 11.696C14.5358 11.9054 14.7342 12.1655 14.9066 12.469C15.0874 12.7869 15.2332 13.1172 15.3399 13.4504C15.4513 13.7986 15.5451 14.1826 15.6184 14.5916C15.6927 15.0068 15.7431 15.397 15.7677 15.7515V15.7518C15.793 16.1123 15.8058 16.4891 15.8059 16.872C15.8058 17.6062 15.5984 18.1606 15.1717 18.5667Z" fill="#5B5B5B"/>
</svg>
