<svg width="36" height="11" viewBox="0 0 36 11" fill="none" xmlns="http://www.w3.org/2000/svg">
<path d="M13.2012 10.6283L15.0297 0.342896H17.8868L16.1154 10.6283H13.2012Z" fill="#3C58BF"/>
<path d="M13.2012 10.6283L15.544 0.342896H17.8868L16.1154 10.6283H13.2012Z" fill="#293688"/>
<path d="M26.4555 0.45713C25.8841 0.228565 24.9698 0 23.827 0C20.9699 0 18.9129 1.42853 18.9129 3.48562C18.9129 5.02844 20.3414 5.82842 21.4842 6.34269C22.627 6.85696 22.9699 7.19981 22.9699 7.65694C22.9699 8.34264 22.0556 8.68549 21.2557 8.68549C20.1128 8.68549 19.4843 8.51406 18.5129 8.11407L18.1129 7.94265L17.7129 10.2854C18.3986 10.5711 19.6557 10.8569 20.9699 10.8569C23.9984 10.8569 25.9984 9.42832 25.9984 7.25695C25.9984 6.05698 25.2556 5.14272 23.5413 4.39988C22.5128 3.88561 21.8842 3.59991 21.8842 3.08563C21.8842 2.6285 22.3985 2.17137 23.5413 2.17137C24.5127 2.17137 25.1984 2.3428 25.7127 2.57136L25.9984 2.68564L26.4555 0.45713Z" fill="#3C58BF"/>
<path d="M26.4555 0.45713C25.8841 0.228565 24.9698 0 23.827 0C20.9699 0 19.4271 1.42853 19.4271 3.48562C19.4271 5.02844 20.3414 5.82842 21.4842 6.34269C22.627 6.85696 22.9699 7.19981 22.9699 7.65694C22.9699 8.34264 22.0556 8.68549 21.2557 8.68549C20.1128 8.68549 19.4843 8.51406 18.5129 8.11407L18.1129 7.94265L17.7129 10.2854C18.3986 10.5711 19.6557 10.8569 20.9699 10.8569C23.9984 10.8569 25.9984 9.42832 25.9984 7.25695C25.9984 6.05698 25.2556 5.14272 23.5413 4.39988C22.5128 3.88561 21.8842 3.59991 21.8842 3.08563C21.8842 2.6285 22.3985 2.17137 23.5413 2.17137C24.5127 2.17137 25.1984 2.3428 25.7127 2.57136L25.9984 2.68564L26.4555 0.45713Z" fill="#293688"/>
<path d="M31.3699 0.342896C30.6842 0.342896 30.1699 0.400037 29.8842 1.08573L25.5986 10.6283H28.6843L29.2557 8.9141H32.9127L33.2556 10.6283H35.9984L33.5984 0.342896H31.3699ZM30.0557 7.19986C30.2271 6.68559 31.1985 4.17137 31.1985 4.17137C31.1985 4.17137 31.4271 3.54281 31.5985 3.14282L31.7699 4.11423C31.7699 4.11423 32.3413 6.68559 32.4556 7.257H30.0557V7.19986Z" fill="#3C58BF"/>
<path d="M32.0556 0.342896C31.3699 0.342896 30.8556 0.400037 30.5699 1.08573L25.5986 10.6283H28.6843L29.2557 8.9141H32.9127L33.2556 10.6283H35.9984L33.5984 0.342896H32.0556ZM30.0557 7.19986C30.2842 6.62845 31.1985 4.17137 31.1985 4.17137C31.1985 4.17137 31.4271 3.54281 31.5985 3.14282L31.7699 4.11423C31.7699 4.11423 32.3413 6.68559 32.4556 7.257H30.0557V7.19986Z" fill="#293688"/>
<path d="M7.94576 7.54266L7.66005 6.05699C7.14578 4.34275 5.48868 2.45708 3.66016 1.54282L6.23152 10.6854H9.31715L13.9456 0.399994H10.86L7.94576 7.54266Z" fill="#3C58BF"/>
<path d="M7.94576 7.54266L7.66005 6.05699C7.14578 4.34275 5.48868 2.45708 3.66016 1.54282L6.23152 10.6854H9.31715L13.9456 0.399994H11.4314L7.94576 7.54266Z" fill="#293688"/>
<path d="M0 0.342896L0.514272 0.457179C4.17132 1.3143 6.68554 3.48567 7.65694 6.05703L6.6284 1.20002C6.45697 0.51432 5.9427 0.342896 5.31415 0.342896H0Z" fill="#FFBC00"/>
<path d="M0 0.342896C3.65705 1.20002 6.68554 3.42853 7.65694 5.99989L6.68554 1.94285C6.51412 1.25716 5.9427 0.857169 5.31415 0.857169L0 0.342896Z" fill="#F7981D"/>
<path d="M0 0.342896C3.65705 1.20002 6.68554 3.42853 7.65694 5.99989L6.97125 3.77138C6.79982 3.08568 6.57126 2.39999 5.77128 2.11428L0 0.342896Z" fill="#ED7C00"/>
<path d="M10.7984 7.19985L8.85561 5.25705L7.94135 7.42842L7.71279 5.99989C7.19851 4.28565 5.54141 2.39998 3.71289 1.48572L6.28425 10.6283H9.36989L10.7984 7.19985Z" fill="#051244"/>
<path d="M16.1154 10.6283L13.6583 8.11407L13.2012 10.6283H16.1154Z" fill="#051244"/>
<path d="M22.6842 7.08554C22.9128 7.31411 23.027 7.48553 22.9699 7.7141C22.9699 8.39979 22.0556 8.74264 21.2557 8.74264C20.1128 8.74264 19.4843 8.57122 18.5129 8.17123L18.1129 7.9998L17.7129 10.3426C18.3986 10.6283 19.6557 10.914 20.9699 10.914C22.7985 10.914 24.2841 10.3997 25.1413 9.48548L22.6842 7.08554Z" fill="#051244"/>
<path d="M26 10.6283H28.6856L29.2571 8.91404H32.9141L33.257 10.6283H35.9997L35.0283 6.45696L31.5999 3.14276L31.7713 4.05702C31.7713 4.05702 32.3427 6.62838 32.457 7.1998H30.057C30.2856 6.62838 31.1999 4.17131 31.1999 4.17131C31.1999 4.17131 31.4284 3.54275 31.5999 3.14276" fill="#051244"/>
</svg>
