<svg width="24" height="19" viewBox="0 0 24 19" fill="none" xmlns="http://www.w3.org/2000/svg">
<path d="M23.5402 6.34483C23.2414 6.06896 22.8506 5.88506 22.4138 5.88506C22.4368 5.88506 22.4598 5.88506 22.4828 5.88506V3.51724C22.4828 2.55172 22.092 1.67816 21.4483 1.03448C20.8046 0.390804 19.931 0 18.9655 0H3.51724C2.55172 0 1.67816 0.390804 1.03448 1.03448C0.390805 1.67816 0 2.55172 0 3.51724V15.4023C0 16.3678 0.390805 17.2414 1.03448 17.885C1.67816 18.5287 2.55172 18.9195 3.51724 18.9195H18.9655C19.931 18.9195 20.8046 18.5287 21.4483 17.885C22.092 17.2414 22.4828 16.3678 22.4828 15.4023V13.0115C22.4598 13.0115 22.4368 13.0115 22.4138 13.0115C22.8506 13.0115 23.2414 12.8276 23.5402 12.5517C23.8161 12.2759 24 11.8621 24 11.4253V7.47126C24 7.03448 23.8161 6.64368 23.5402 6.34483ZM21.2184 15.3793C21.2184 16 20.9655 16.5517 20.5517 16.9655C20.1379 17.3793 19.5862 17.6322 18.9655 17.6322H3.51724C2.89655 17.6322 2.34483 17.3793 1.93103 16.9655C1.51724 16.5517 1.26437 16 1.26437 15.3793V3.51724C1.26437 2.89655 1.51724 2.34483 1.93103 1.93103C2.34483 1.51724 2.89655 1.26437 3.51724 1.26437H18.9655C19.5862 1.26437 20.1379 1.51724 20.5517 1.93103C20.9655 2.34483 21.2184 2.89655 21.2184 3.51724V5.88506H14.092C13.1264 5.88506 12.2759 6.27586 11.6322 6.89655C11.0115 7.51724 10.6207 8.3908 10.6207 9.35632V9.51724C10.6207 10.4828 11.0115 11.3333 11.6322 11.977C12.2529 12.5977 13.1264 12.9885 14.092 12.9885H21.2184V15.3793ZM22.7356 11.4253C22.7356 11.5172 22.6897 11.6092 22.6437 11.6552C22.5747 11.7241 22.5057 11.7471 22.4138 11.7471H14.092C13.4943 11.7471 12.9195 11.4942 12.5287 11.1034C12.1379 10.7126 11.8851 10.1379 11.8851 9.54023V9.37931C11.8851 8.75862 12.1379 8.20689 12.5287 7.81609C12.9425 7.4023 13.4943 7.17241 14.092 7.17241H22.4138C22.5057 7.17241 22.5977 7.21839 22.6437 7.26437C22.7126 7.33333 22.7356 7.4023 22.7356 7.49425V11.4253Z" fill="#5B5B5B"/>
<path d="M14.2522 8.4137C13.9764 8.4137 13.7235 8.52864 13.5396 8.71255C13.3557 8.89645 13.2407 9.14933 13.2407 9.42519C13.2407 9.70105 13.3557 9.95393 13.5396 10.1378C13.7235 10.3217 13.9764 10.4367 14.2522 10.4367C14.5281 10.4367 14.781 10.3217 14.9878 10.1378C15.1718 9.95393 15.2867 9.70105 15.2867 9.4022C15.2867 9.12634 15.1718 8.87347 14.9878 8.66657C14.781 8.52864 14.5281 8.4137 14.2522 8.4137Z" fill="#5B5B5B"/>
</svg>
