<svg width="22" height="16" viewBox="0 0 22 16" fill="none" xmlns="http://www.w3.org/2000/svg">
<g opacity="0.3">
<path d="M13.7911 7.04348L9.13186 4.49414C8.86396 4.34756 8.5473 4.35303 8.28471 4.50862C8.02195 4.66437 7.86523 4.93952 7.86523 5.24491V10.2998C7.86523 10.6038 8.02099 10.8784 8.28197 11.0344C8.41826 11.1158 8.56934 11.1566 8.72075 11.1566C8.85945 11.1566 8.99847 11.1224 9.12639 11.0535L13.7858 8.54808C14.0624 8.39925 14.2351 8.11171 14.2363 7.79747C14.2375 7.48323 14.0669 7.19441 13.7911 7.04348ZM9.10113 9.66394V5.88595L12.5834 7.79136L9.10113 9.66394Z" fill="black"/>
<path d="M20.9347 3.77011L20.9338 3.76046C20.9159 3.5907 20.7381 2.08079 20.0041 1.31281C19.1556 0.409497 18.1938 0.299762 17.7312 0.247147C17.6929 0.242802 17.6578 0.23878 17.6264 0.234596L17.5896 0.230734C14.8014 0.0279971 10.5908 0.000321805 10.5486 0.000160903L10.5449 0L10.5412 0.000160903C10.4991 0.000321805 6.2884 0.0279971 3.47518 0.230734L3.43801 0.234596C3.40808 0.238619 3.3751 0.242319 3.33921 0.246503C2.88193 0.299279 1.93035 0.409176 1.0795 1.34515C0.380374 2.10493 0.17828 3.5825 0.157524 3.74855L0.15511 3.77011C0.148835 3.84075 0 5.52234 0 7.21053V8.78867C0 10.4769 0.148835 12.1585 0.15511 12.2292L0.156237 12.2399C0.174097 12.4069 0.351733 13.8891 1.08239 14.6574C1.88015 15.5305 2.88885 15.646 3.43141 15.7081C3.51717 15.7179 3.59103 15.7263 3.64139 15.7352L3.69014 15.7419C5.29997 15.8951 10.3473 15.9706 10.5613 15.9736L10.5678 15.9738L10.5742 15.9736C10.6164 15.9735 14.8269 15.9458 17.615 15.743L17.6518 15.7392C17.6871 15.7345 17.7267 15.7303 17.7701 15.7258C18.2248 15.6776 19.1712 15.5773 20.0103 14.6541C20.7095 13.8941 20.9117 12.4165 20.9323 12.2506L20.9347 12.2291C20.941 12.1583 21.09 10.4769 21.09 8.78867V7.21053C21.0898 5.52234 20.941 3.84091 20.9347 3.77011ZM19.8539 8.78867C19.8539 10.3512 19.7175 11.9604 19.7046 12.1081C19.6522 12.515 19.439 13.4499 19.0983 13.8201C18.5732 14.3979 18.0337 14.4552 17.6398 14.4969C17.5921 14.5018 17.548 14.5067 17.5081 14.5117C14.8114 14.7067 10.7597 14.7366 10.5731 14.7377C10.3637 14.7347 5.39024 14.6586 3.82948 14.5136C3.74952 14.5006 3.66311 14.4906 3.57204 14.4803C3.11009 14.4273 2.47774 14.3549 1.99149 13.8201L1.98007 13.8079C1.64539 13.4592 1.43831 12.585 1.38569 12.1129C1.37588 12.0013 1.23589 10.3731 1.23589 8.78867V7.21053C1.23589 5.64978 1.37202 4.04236 1.38521 3.89159C1.4478 3.41226 1.66502 2.53406 1.99149 2.17911C2.53277 1.58377 3.10349 1.5178 3.48097 1.47419C3.51701 1.47001 3.55064 1.46615 3.58169 1.46212C6.31768 1.26614 10.3985 1.23702 10.5449 1.23589C10.6913 1.23686 14.7707 1.26614 17.4824 1.46212C17.5157 1.46631 17.5521 1.47049 17.5912 1.475C17.9794 1.51924 18.5662 1.58618 19.1048 2.1606L19.1098 2.16591C19.4444 2.51459 19.6515 3.40406 19.7041 3.88564C19.7135 3.99103 19.8539 5.62275 19.8539 7.21053V8.78867Z" fill="black"/>
</g>
</svg>
