<svg width="16" height="18" viewBox="0 0 16 18" fill="none" xmlns="http://www.w3.org/2000/svg">
<path d="M14.3136 7.22139H14.2704V6.16197C14.2704 2.75881 11.5116 0 8.1084 0C4.7052 0 1.94643 2.75881 1.94643 6.16197V7.22139H1.68699C0.735663 7.22139 0.000562107 8.06459 0.000562107 9.03756V11.7402C-0.0233991 12.6832 0.721675 13.4671 1.66469 13.491C1.67214 13.4912 1.67954 13.4914 1.68699 13.4915H3.28693C3.51355 13.4808 3.68865 13.2884 3.67797 13.0618C3.6776 13.0537 3.67698 13.0455 3.67611 13.0374V7.74026C3.67611 7.48083 3.52477 7.22135 3.28693 7.22135H2.81127V6.16192C2.81127 3.23642 5.18289 0.864797 8.1084 0.864797C11.0339 0.864797 13.4055 3.23642 13.4055 6.16192V7.22135H12.9299C12.692 7.22135 12.5407 7.48078 12.5407 7.74026V13.0374C12.5166 13.263 12.6799 13.4654 12.9054 13.4895C12.9136 13.4904 12.9217 13.491 12.9299 13.4914H13.4271L13.3839 13.5563C12.7351 14.4185 11.7171 14.9235 10.638 14.9184C10.4018 13.7601 9.27128 13.0126 8.11299 13.2488C7.12247 13.4508 6.40831 14.3183 6.40032 15.3292C6.41216 16.5148 7.37673 17.4697 8.56242 17.4696C9.14936 17.4601 9.70883 17.2193 10.1191 16.7994C10.3959 16.5159 10.5773 16.1531 10.638 15.7616C11.9893 15.7667 13.2636 15.1335 14.0757 14.0535L14.4866 13.4481C15.4162 13.3833 16 12.7995 16 11.9563V9.25367C16 8.32406 15.3082 7.22139 14.3136 7.22139ZM2.81127 12.6266H1.68699C1.22143 12.6153 0.853193 12.2287 0.864532 11.7631C0.864739 11.7555 0.865029 11.7478 0.865401 11.7401V9.03752C0.865401 8.54025 1.21133 8.08619 1.68699 8.08619H2.81127V12.6266ZM9.49215 16.1941C9.25253 16.4539 8.91588 16.6026 8.56246 16.6049C7.85902 16.5937 7.28817 16.0324 7.2652 15.3292C7.26491 14.6247 7.8358 14.0534 8.54032 14.0531C9.24484 14.0528 9.81618 14.6237 9.81647 15.3282C9.81647 15.3285 9.81647 15.3289 9.81647 15.3292C9.83447 15.6502 9.71678 15.9641 9.49215 16.1941ZM15.1352 11.9564C15.1352 12.5401 14.573 12.6266 14.3136 12.6266H13.4055V8.08623H14.3136C14.7893 8.08623 15.1352 8.75648 15.1352 9.25375V11.9564Z" fill="white"/>
</svg>
