<svg width="17" height="18" viewBox="0 0 17 18" fill="none" xmlns="http://www.w3.org/2000/svg">
<path d="M16.0788 9.14331C15.9627 8.9648 15.9627 8.73423 16.0788 8.55572L16.7252 7.56223C17.314 6.6573 16.9173 5.44154 15.911 5.05634L14.8041 4.63254C14.6052 4.55635 14.4696 4.36978 14.4587 4.15709L14.3977 2.97347C14.3421 1.89549 13.3066 1.14474 12.266 1.42474L11.1214 1.73247C10.9158 1.78771 10.6964 1.71646 10.5626 1.55085L9.81746 0.629086C9.13885 -0.210369 7.86003 -0.209021 7.18256 0.629086L6.43741 1.55088C6.30356 1.71653 6.08423 1.78771 5.87854 1.7325L4.73395 1.42478C3.69127 1.14436 2.65768 1.8976 2.60223 2.9735L2.54122 4.15712C2.53023 4.36978 2.39469 4.55638 2.19582 4.63254L1.08901 5.05634C0.0806196 5.44233 -0.312905 6.6591 0.27472 7.56226L0.921112 8.55572C1.03723 8.7342 1.03723 8.96484 0.921112 9.14331L0.274824 10.1368C-0.314011 11.0418 0.0828321 12.2576 1.08904 12.6427L2.19592 13.0665C2.39479 13.1427 2.53037 13.3292 2.54133 13.5419L2.60234 14.7256C2.65792 15.8037 3.69359 16.5542 4.73406 16.2743L5.87858 15.9666C6.08429 15.9114 6.30359 15.9826 6.43748 16.1482L7.1826 17.0699C7.86134 17.9096 9.14013 17.9079 9.81749 17.0699L10.5626 16.1482C10.6965 15.9826 10.9159 15.9114 11.1215 15.9666L12.2661 16.2743C13.3085 16.5548 14.3423 15.8016 14.3978 14.7256L14.4588 13.5419C14.4698 13.3293 14.6053 13.1427 14.8042 13.0665L15.911 12.6427C16.9193 12.2567 17.3129 11.04 16.7253 10.1368L16.0788 9.14331ZM15.4979 11.5638L14.391 11.9876C13.7657 12.227 13.3394 12.8138 13.3049 13.4824L13.2439 14.666C13.2263 15.009 12.897 15.2475 12.566 15.1586L11.4214 14.8509C10.7748 14.6769 10.0849 14.9012 9.66408 15.4219L8.91903 16.3436C8.70315 16.6106 8.29649 16.6101 8.08102 16.3436L7.33598 15.4219C7.00972 15.0183 6.52189 14.7928 6.01782 14.7928C5.87163 14.7928 5.72402 14.8117 5.5786 14.8509L4.43401 15.1586C4.10229 15.2476 3.77375 15.0083 3.75605 14.666L3.69504 13.4824C3.66058 12.8138 3.23425 12.227 2.60898 11.9876L1.5021 11.5637C1.18141 11.441 1.05631 11.0541 1.24318 10.7668L1.88954 9.77339C2.25469 9.21214 2.25469 8.48683 1.88954 7.92565L1.24318 6.93219C1.05589 6.64437 1.18207 6.2578 1.50213 6.13525L2.60901 5.71145C3.23432 5.47203 3.66061 4.88527 3.69508 4.21661L3.75609 3.033C3.77375 2.69004 4.10302 2.45152 4.43404 2.54043L5.57863 2.84816C6.22523 3.02207 6.91504 2.79786 7.33594 2.27716L8.08106 1.3554C8.29694 1.08839 8.70363 1.08895 8.91903 1.3554L9.66415 2.2772C10.0851 2.7979 10.7748 3.02211 11.4215 2.84816L12.566 2.54043C12.8977 2.45135 13.2263 2.69074 13.244 3.033L13.3049 4.21661C13.3394 4.88527 13.7657 5.47206 14.391 5.71145L15.4979 6.13529C15.8186 6.258 15.9437 6.64496 15.7568 6.93219L15.1105 7.92561C14.7453 8.48683 14.7453 9.21214 15.1105 9.77339L15.7568 10.7668C15.9441 11.0547 15.818 11.4412 15.4979 11.5638Z" fill="white"/>
<path d="M11.3859 5.9055C11.1603 5.67994 10.7945 5.67994 10.5689 5.9055L5.17746 11.297C4.95191 11.5225 4.95191 11.8883 5.1775 12.1139C5.2903 12.2267 5.43814 12.2831 5.58596 12.2831C5.73377 12.2831 5.88165 12.2267 5.99442 12.1139L11.3859 6.72238C11.6115 6.49686 11.6115 6.13109 11.3859 5.9055Z" fill="white"/>
<path d="M6.16361 5.73633C5.52655 5.73633 5.0083 6.25461 5.0083 6.89163C5.0083 7.52869 5.52662 8.04694 6.16361 8.04694C6.80066 8.04694 7.31891 7.52866 7.31891 6.89163C7.31895 6.25461 6.80066 5.73633 6.16361 5.73633Z" fill="white"/>
<path d="M10.3997 9.97266C9.76263 9.97266 9.24438 10.4909 9.24438 11.128C9.24438 11.765 9.76267 12.2833 10.3997 12.2833C11.0367 12.2833 11.555 11.765 11.555 11.128C11.555 10.4909 11.0367 9.97266 10.3997 9.97266Z" fill="white"/>
</svg>
