<svg width="16" height="16" viewBox="0 0 16 16" fill="none" xmlns="http://www.w3.org/2000/svg">
<path d="M16 12.2184C16 11.9596 15.7901 11.7497 15.5313 11.7497H15.031V3.48174C15.5766 3.28825 15.9685 2.76723 15.9685 2.15619V0.468736C15.9685 0.209869 15.7586 0 15.4998 0H0.500204C0.241337 0 0.0314678 0.209869 0.0314678 0.468736V2.15622C0.0314678 2.76726 0.423363 3.28828 0.96894 3.48177V11.7497H0.468736C0.209869 11.7497 0 11.9596 0 12.2184C0 12.434 0.145746 12.6152 0.343959 12.6698V15.5307C0.343959 15.7896 0.553828 15.9995 0.812695 15.9995C1.07156 15.9995 1.28143 15.7896 1.28143 15.5307V12.6872H14.8123V15.5307C14.8123 15.7896 15.0222 15.9995 15.281 15.9995C15.5399 15.9995 15.7498 15.7896 15.7498 15.5307V12.633C15.8985 12.5544 16 12.3983 16 12.2184ZM15.031 2.15622C15.031 2.41468 14.8208 2.62492 14.5623 2.62492C14.3038 2.62492 14.0936 2.41465 14.0936 2.15622V0.937473H15.031V2.15622ZM13.1561 2.15622C13.1561 2.41468 12.9458 2.62492 12.6873 2.62492C12.4291 2.62492 12.219 2.41509 12.2186 2.15703C12.2186 2.15675 12.2186 2.1565 12.2186 2.15622V0.937473H13.1561V2.15622ZM10.3437 0.937473H11.2811V2.15622C11.2811 2.1565 11.2811 2.15675 11.2811 2.15703C11.2807 2.41512 11.0706 2.62492 10.8124 2.62492C10.554 2.62492 10.3437 2.41465 10.3437 2.15622V0.937473ZM9.40622 2.15622C9.40622 2.41468 9.19595 2.62492 8.93746 2.62492C8.67915 2.62492 8.46897 2.41487 8.46875 2.15662C8.46875 2.1565 8.46875 2.15637 8.46875 2.15622V0.937473H9.40622V2.15622ZM6.59381 0.937473H7.53128V2.15622V2.15641C7.53115 2.41477 7.32094 2.62492 7.06254 2.62492C6.80408 2.62492 6.59381 2.41465 6.59381 2.15622V0.937473ZM5.65633 2.15622C5.65633 2.41468 5.44606 2.62492 5.1876 2.62492C4.9292 2.62492 4.71896 2.41477 4.71886 2.15641C4.71886 2.15634 4.71886 2.15628 4.71886 2.15622V0.937473H5.65633V2.15622ZM2.84392 0.937473H3.78139V2.15622V2.15641C3.78126 2.41477 3.57105 2.62492 3.31265 2.62492C3.05419 2.62492 2.84392 2.41465 2.84392 2.15622V0.937473ZM0.96894 0.937473H1.90641V2.15622C1.90641 2.41468 1.69614 2.62492 1.43768 2.62492C1.17922 2.62492 0.96894 2.41465 0.96894 2.15622V0.937473ZM1.90641 3.48174C2.08103 3.41981 2.23987 3.32443 2.37515 3.20316C2.62414 3.42631 2.95273 3.56236 3.31262 3.56236C3.67252 3.56236 4.0011 3.42631 4.25009 3.20316C4.49909 3.42631 4.82767 3.56236 5.18757 3.56236C5.54746 3.56236 5.87605 3.42631 6.12504 3.20316C6.37403 3.42631 6.70262 3.56236 7.06251 3.56236C7.42241 3.56236 7.75099 3.42631 7.99998 3.20316C8.24898 3.42631 8.57756 3.56236 8.93743 3.56236C9.29732 3.56236 9.62594 3.42631 9.87493 3.20316C10.1239 3.42631 10.4525 3.56236 10.8124 3.56236C11.1723 3.56236 11.5009 3.42634 11.7498 3.20319C11.9988 3.42634 12.3274 3.56236 12.6873 3.56236C13.0472 3.56236 13.3758 3.42631 13.6248 3.20316C13.7601 3.32443 13.9189 3.41981 14.0935 3.48174V11.7497H11.5623V9.96849C11.5623 8.86458 10.7283 7.9523 9.65737 7.8274C9.94952 7.46337 10.1249 7.00179 10.1249 6.49981C10.1249 5.32812 9.17164 4.37487 7.99995 4.37487C6.82827 4.37487 5.87502 5.32812 5.87502 6.49981C5.87502 7.00179 6.05038 7.46337 6.34253 7.8274C5.2716 7.9523 4.43756 8.86458 4.43756 9.96849V11.7497H1.90638V3.48174H1.90641ZM6.81252 6.49981C6.81252 5.84505 7.34522 5.31234 7.99998 5.31234C8.65475 5.31234 9.18745 5.84505 9.18745 6.49981C9.18745 7.15457 8.65475 7.68727 7.99998 7.68727C7.34522 7.68727 6.81252 7.15457 6.81252 6.49981ZM7.09376 8.74974H8.90624V9.87471H7.09376V8.74974ZM6.62502 10.8122H9.37498C9.63384 10.8122 9.84371 10.6023 9.84371 10.3434V8.8313C10.3001 9.00755 10.6249 9.45069 10.6249 9.96849V11.7497H5.37506V9.96849C5.37506 9.45066 5.69983 9.00752 6.15626 8.83127V10.3434C6.15629 10.6023 6.36616 10.8122 6.62502 10.8122Z" fill="white"/>
</svg>
