<svg width="15" height="17" viewBox="0 0 15 17" fill="none" xmlns="http://www.w3.org/2000/svg">
<path d="M15 2.8125V0.46875C15 0.34443 14.9506 0.225201 14.8627 0.137294C14.7748 0.0493861 14.6556 0 14.5312 0H0.468751C0.344431 0 0.225202 0.0493861 0.137295 0.137294C0.0493871 0.225201 9.9829e-07 0.34443 9.9829e-07 0.46875V2.8125C-0.000414084 3.31776 0.128619 3.81469 0.374794 4.25592C0.620969 4.69715 0.976076 5.06795 1.40625 5.33297V9.375H0.468751C0.344431 9.375 0.225202 9.42438 0.137295 9.51229C0.0493871 9.6002 9.9829e-07 9.71943 9.9829e-07 9.84375V16.4062C9.9829e-07 16.5306 0.0493871 16.6498 0.137295 16.7377C0.225202 16.8256 0.344431 16.875 0.468751 16.875H14.5312C14.6556 16.875 14.7748 16.8256 14.8627 16.7377C14.9506 16.6498 15 16.5306 15 16.4062V9.84375C15 9.71943 14.9506 9.6002 14.8627 9.51229C14.7748 9.42438 14.6556 9.375 14.5312 9.375H13.5937V5.33287C14.0239 5.06788 14.379 4.69709 14.6252 4.25588C14.8714 3.81467 15.0004 3.31774 15 2.8125ZM0.937501 0.9375H14.0625V2.8125C14.0721 3.2907 13.9053 3.75571 13.5938 4.1187C13.2824 4.4817 12.8481 4.71726 12.374 4.78041C12.0351 4.81332 11.6936 4.75373 11.3858 4.608C11.0781 4.46227 10.8156 4.23583 10.6263 3.95278C10.5415 3.82455 10.4265 3.71919 10.2913 3.64605C10.1561 3.57291 10.005 3.53425 9.8513 3.53348H9.849C9.69191 3.53414 9.5374 3.57345 9.3991 3.64792C9.26079 3.7224 9.14293 3.82977 9.05592 3.96056C8.88445 4.21578 8.65282 4.42489 8.38146 4.56947C8.11011 4.71404 7.80734 4.78964 7.49987 4.78959C7.1924 4.78954 6.88967 4.71386 6.61835 4.5692C6.34704 4.42454 6.11547 4.21536 5.94408 3.96009C5.85696 3.82945 5.73907 3.72221 5.60078 3.64783C5.46248 3.57345 5.30803 3.5342 5.151 3.53353H5.1487C4.99503 3.53427 4.84392 3.57293 4.70877 3.64607C4.57363 3.71921 4.45862 3.82458 4.37395 3.95283C4.18491 4.23626 3.9224 4.46298 3.61447 4.60876C3.30655 4.75453 2.96479 4.81388 2.62575 4.78045C2.15167 4.71726 1.71747 4.48167 1.40606 4.11866C1.09465 3.75566 0.927846 3.29068 0.937501 2.8125V0.9375ZM14.0625 15.9375H0.937501V10.3125H14.0625V15.9375ZM12.6562 9.375H2.34375V5.68509C2.40745 5.69597 2.47116 5.70712 2.53622 5.71322C3.04445 5.76142 3.55632 5.67289 4.01884 5.45679C4.48135 5.24068 4.87769 4.90486 5.1668 4.48411C5.42526 4.86771 5.77421 5.18176 6.18283 5.39851C6.59145 5.61527 7.04716 5.72806 7.50971 5.72693C7.97226 5.7258 8.42741 5.61078 8.83496 5.39203C9.24252 5.17328 9.58993 4.85753 9.84651 4.47267C10.1289 4.89768 10.5217 5.23772 10.9828 5.45629C11.4439 5.67485 11.9558 5.76368 12.4635 5.71322C12.5287 5.70698 12.5925 5.69583 12.6562 5.68509V9.375Z" fill="white"/>
<path d="M7.5 10.7812C7.03645 10.7812 6.58331 10.9187 6.19788 11.1762C5.81246 11.4338 5.51205 11.7998 5.33466 12.2281C5.15727 12.6563 5.11085 13.1276 5.20129 13.5822C5.29172 14.0369 5.51494 14.4545 5.84272 14.7823C6.1705 15.1101 6.58812 15.3333 7.04276 15.4237C7.4974 15.5141 7.96865 15.4677 8.39692 15.2903C8.82518 15.1129 9.19122 14.8125 9.44876 14.4271C9.70629 14.0417 9.84375 13.5885 9.84375 13.125C9.84302 12.5036 9.59585 11.9079 9.15648 11.4685C8.7171 11.0291 8.12138 10.782 7.5 10.7812ZM7.5 14.5312C7.22187 14.5312 6.94999 14.4488 6.71873 14.2943C6.48747 14.1397 6.30723 13.9201 6.2008 13.6631C6.09436 13.4062 6.06651 13.1234 6.12077 12.8507C6.17503 12.5779 6.30896 12.3273 6.50563 12.1306C6.7023 11.934 6.95287 11.8 7.22566 11.7458C7.49844 11.6915 7.78119 11.7194 8.03815 11.8258C8.29511 11.9322 8.51474 12.1125 8.66926 12.3437C8.82378 12.575 8.90625 12.8469 8.90625 13.125C8.90584 13.4978 8.75755 13.8553 8.49392 14.1189C8.23028 14.3826 7.87284 14.5308 7.5 14.5312Z" fill="white"/>
</svg>
