<svg width="13" height="13" viewBox="0 0 13 13" fill="none" xmlns="http://www.w3.org/2000/svg">
<path d="M12.0943 7.24772C11.7154 7.24772 11.3804 7.49189 11.2636 7.8524C10.6319 9.80379 8.80026 11.2196 6.64107 11.2196C3.96048 11.2196 1.77955 9.03847 1.77955 6.35768C1.77955 4.20735 3.18369 2.38159 5.1231 1.74272C5.49758 1.61933 5.7513 1.2692 5.7513 0.874476C5.7513 0.594883 5.61751 0.332044 5.39159 0.16763C5.16566 0.00296444 4.87455 -0.0435049 4.60869 0.0420965C1.93814 0.902156 0 3.40524 0 6.35777C0 10.02 2.97907 12.9992 6.64105 12.9992C9.58176 12.9992 12.0764 11.0763 12.9458 8.42269C13.0352 8.14982 12.9883 7.85071 12.8198 7.61811C12.6516 7.38565 12.3819 7.24772 12.0943 7.24772Z" fill="#7B7B7B"/>
<path d="M8.13505 1.73496C9.61129 2.21287 10.7795 3.37847 11.2609 4.85317C11.3808 5.22028 11.7227 5.46817 12.1089 5.46817H12.1273C12.4061 5.46817 12.6682 5.33482 12.8324 5.10954C12.9962 4.88427 13.0431 4.59382 12.9575 4.3284C12.3063 2.30343 10.708 0.701804 8.68471 0.0458156C8.41661 -0.041043 8.12251 0.00563205 7.89446 0.171349C7.66636 0.337295 7.53125 0.602351 7.53125 0.884458V0.903819C7.53116 1.28225 7.77528 1.6183 8.13505 1.73496Z" fill="#7B7B7B"/>
</svg>
