<svg width="26" height="26" viewBox="0 0 26 26" fill="none" xmlns="http://www.w3.org/2000/svg">
<path d="M20.8203 21.582H0.761719C0.340988 21.582 0 21.241 0 20.8203V0.761719C0 0.340988 0.340988 0 0.761719 0H20.8203C21.241 0 21.582 0.340988 21.582 0.761719V20.8203C21.582 21.241 21.241 21.582 20.8203 21.582Z" fill="#FFE046"/>
<path d="M20.8203 0H10.791V21.582H20.8203C21.241 21.582 21.582 21.241 21.582 20.8203V0.761719C21.582 0.340988 21.241 0 20.8203 0Z" fill="#FDBF00"/>
<path d="M13.315 6.47124L10.791 5.18861L8.26703 6.47124C8.03078 6.59145 7.7493 6.57994 7.52356 6.44148C7.29782 6.30302 7.16016 6.05705 7.16016 5.79224V0.761719C7.16016 0.340988 7.50114 0 7.92188 0H13.6602C14.0809 0 14.4219 0.340988 14.4219 0.761719V5.79224C14.4219 6.05705 14.2842 6.30302 14.0585 6.44148C13.9367 6.51627 13.6262 6.61426 13.315 6.47124Z" fill="#E69F34"/>
<path d="M18.0146 26C13.6116 26 10.0293 22.4177 10.0293 18.0146C10.0293 13.6116 13.6116 10.0293 18.0146 10.0293C22.4177 10.0293 26 13.6116 26 18.0146C26 22.4177 22.4177 26 18.0146 26Z" fill="#FF5B5B"/>
<path d="M18.0146 10.0293V26C22.4177 26 26 22.4177 26 18.0146C26 13.6116 22.4177 10.0293 18.0146 10.0293Z" fill="#CA0000"/>
<path d="M19.1442 15.4367H17.0304L17.4751 14.9914C17.7723 14.6936 17.7719 14.2112 17.4741 13.9141C17.1764 13.6169 16.694 13.6171 16.3968 13.9151L14.6498 15.6652C14.507 15.8083 14.427 16.0021 14.4272 16.204C14.4274 16.4061 14.5078 16.5997 14.6508 16.7425L16.4012 18.4895C16.5497 18.6379 16.7445 18.7121 16.9391 18.7121C17.1345 18.7121 17.3295 18.6375 17.4783 18.4885C17.7756 18.1908 17.775 17.7086 17.4773 17.4112L17.0254 16.9602H19.1442C19.9283 16.9602 20.5662 17.5981 20.5662 18.3822V18.4326C20.5662 19.2167 19.9283 19.8547 19.1442 19.8547H15.5897C15.1689 19.8547 14.8279 20.1957 14.8279 20.6164C14.8279 21.0371 15.1689 21.3781 15.5897 21.3781H19.1442C20.7684 21.3781 22.0897 20.0568 22.0897 18.4326V18.3822C22.0897 16.758 20.7684 15.4367 19.1442 15.4367Z" fill="#E1F6FD"/>
<path d="M13.6602 0H10.791V5.18861L13.315 6.47124C13.6262 6.61426 13.9367 6.51627 14.0585 6.44148C14.2842 6.30302 14.4219 6.05705 14.4219 5.79224V0.761719C14.4219 0.340988 14.0809 0 13.6602 0Z" fill="#BB7C14"/>
<path d="M19.1443 15.4375H18.0146V16.9609H19.1443C19.9285 16.9609 20.5664 17.5989 20.5664 18.383V18.4334C20.5664 19.2175 19.9285 19.8555 19.1443 19.8555H18.0146V21.3789H19.1443C20.7685 21.3789 22.0898 20.0576 22.0898 18.4334V18.383C22.0898 16.7588 20.7685 15.4375 19.1443 15.4375Z" fill="#BEEBFA"/>
</svg>
